<?xml version="1.0" encoding="UTF-8" standalone="no"?>
<!-- Created with Inkscape (http://www.inkscape.org/) -->

<svg
   width="1080"
   height="1080"
   viewBox="0 0 285.74999 285.75"
   version="1.1"
   id="svg1"
   xml:space="preserve"
   inkscape:export-filename="bitmap.png"
   inkscape:export-xdpi="96"
   inkscape:export-ydpi="96"
   xmlns:inkscape="http://www.inkscape.org/namespaces/inkscape"
   xmlns:sodipodi="http://sodipodi.sourceforge.net/DTD/sodipodi-0.dtd"
   xmlns="http://www.w3.org/2000/svg"
   xmlns:svg="http://www.w3.org/2000/svg"><sodipodi:namedview
     id="namedview1"
     pagecolor="#ffffff"
     bordercolor="#000000"
     borderopacity="0.25"
     inkscape:showpageshadow="2"
     inkscape:pageopacity="0.0"
     inkscape:pagecheckerboard="0"
     inkscape:deskcolor="#d1d1d1"
     inkscape:document-units="mm"
     inkscape:export-bgcolor="#ffffffff"><inkscape:page
       x="0"
       y="0"
       width="285.75"
       height="285.75"
       id="page2"
       margin="0"
       bleed="0" /></sodipodi:namedview><defs
     id="defs1" /><g
     inkscape:label="Layer 1"
     inkscape:groupmode="layer"
     id="layer1"><g
       id="g1"
       transform="matrix(1.185054,0,0,1.1217377,-21.210444,-16.667755)"><path
         style="fill:#d0d0d0;fill-opacity:1"
         d="m 90.492293,244.88763 c 0.203311,-0.0417 0.536002,-0.0417 0.739314,0 0.203311,0.0417 0.03697,0.0757 -0.369657,0.0757 -0.406623,0 -0.572969,-0.0341 -0.369657,-0.0757 z m 141.291127,0 c 0.20331,-0.0417 0.536,-0.0417 0.73931,0 0.20331,0.0417 0.037,0.0757 -0.36965,0.0757 -0.40663,0 -0.57297,-0.0341 -0.36966,-0.0757 z M 83.49475,237.84469 c 0,-0.24034 0.03729,-0.33865 0.08287,-0.21849 0.04558,0.12017 0.04558,0.3168 0,0.43697 -0.04558,0.12017 -0.08287,0.0218 -0.08287,-0.21848 z m 33.16104,-6.00877 c 0,-0.0363 0.12938,-0.17394 0.28752,-0.30588 0.26057,-0.21742 0.26638,-0.21123 0.062,0.066 -0.21463,0.29115 -0.34955,0.38374 -0.34955,0.23989 z m -83.611656,-4.75524 c 0.0079,-0.20361 0.04681,-0.24503 0.09926,-0.1056 0.04746,0.12618 0.04162,0.27693 -0.01297,0.33501 -0.05459,0.0581 -0.09342,-0.0452 -0.08629,-0.22941 z m -0.0982,-19.47425 c 0,-9.75752 0.01985,-13.74923 0.04412,-8.87047 0.02426,4.87876 0.02426,12.86218 0,17.74094 -0.02426,4.87876 -0.04412,0.88705 -0.04412,-8.87047 z m 18.694422,14.21146 c 0.15985,-0.0443 0.381645,-0.0414 0.492876,0.006 0.111231,0.0479 -0.01956,0.0841 -0.290638,0.0806 -0.271082,-0.004 -0.362089,-0.0427 -0.202238,-0.0871 z m 2.628672,0 c 0.159851,-0.0443 0.381645,-0.0414 0.492876,0.006 0.111231,0.0479 -0.01956,0.0841 -0.290638,0.0806 -0.271082,-0.004 -0.362089,-0.0427 -0.202238,-0.0871 z m 20.536501,0 c 0.15985,-0.0443 0.381645,-0.0414 0.492876,0.006 0.111231,0.0479 -0.01956,0.0841 -0.290638,0.0806 -0.271082,-0.004 -0.362089,-0.0427 -0.202238,-0.0871 z m 2.050523,0.005 c 0.112951,-0.0485 0.297779,-0.0485 0.41073,0 0.112951,0.0485 0.02054,0.0882 -0.205365,0.0882 -0.225902,0 -0.318316,-0.0397 -0.205365,-0.0882 z m -10.573551,-4.7783 c 0,-1.2978 0.02586,-1.82871 0.05747,-1.17981 0.03161,0.64889 0.03161,1.71073 0,2.35963 -0.03161,0.6489 -0.05747,0.11798 -0.05747,-1.17982 z m 17.022012,2.20625 c 0,-0.0363 0.12938,-0.17394 0.287511,-0.30588 0.260577,-0.21741 0.266388,-0.21123 0.06203,0.066 -0.214627,0.29115 -0.349541,0.38374 -0.349541,0.23989 z M 60.183544,214.6516 c 0.159851,-0.0443 0.381645,-0.0414 0.492876,0.006 0.111231,0.0479 -0.01956,0.0841 -0.290638,0.0806 -0.271082,-0.004 -0.362089,-0.0427 -0.202238,-0.0871 z M 85.1247,214.49598 c 0.0079,-0.20362 0.04681,-0.24504 0.09926,-0.10561 0.04746,0.12618 0.04162,0.27693 -0.01297,0.33501 -0.05459,0.0581 -0.09342,-0.0452 -0.08629,-0.2294 z m 135.00425,-1.06617 c 0.1186,-0.0505 0.2603,-0.0443 0.3149,0.0138 0.0546,0.0581 -0.0424,0.0994 -0.21564,0.0918 -0.19139,-0.008 -0.23032,-0.0498 -0.0993,-0.1056 z M 41.277792,211.71394 c 0.0033,-0.2884 0.04017,-0.38522 0.08182,-0.21516 0.04165,0.17006 0.03892,0.40603 -0.0061,0.52436 -0.045,0.11834 -0.07908,-0.0208 -0.07574,-0.3092 z m 0.0061,-4.98145 c 0,-0.33646 0.03381,-0.47411 0.07513,-0.30588 0.04132,0.16824 0.04132,0.44353 0,0.61176 -0.04132,0.16823 -0.07513,0.0306 -0.07513,-0.30588 z m 17.191588,-1.70418 c -0.204358,-0.27722 -0.198547,-0.2834 0.06203,-0.066 0.273669,0.22834 0.3607,0.37187 0.225482,0.37187 -0.03412,0 -0.163496,-0.13764 -0.287511,-0.30588 z m 8.577111,-1.19438 c 0.0079,-0.20362 0.04681,-0.24503 0.09926,-0.1056 0.04746,0.12618 0.04162,0.27693 -0.01297,0.33501 -0.05459,0.0581 -0.09342,-0.0452 -0.08629,-0.22941 z m 4.422914,-2.06148 c 0,-0.0363 0.12938,-0.17394 0.287511,-0.30588 0.260576,-0.21741 0.266387,-0.21123 0.06203,0.066 -0.214626,0.29115 -0.34954,0.38374 -0.34954,0.23989 z m 40.169395,-1.85667 c 0.16355,-0.19227 0.33433,-0.34958 0.37951,-0.34958 0.0452,0 -0.0517,0.15731 -0.21522,0.34958 -0.16355,0.19226 -0.33433,0.34957 -0.37951,0.34957 -0.0452,0 0.0517,-0.15731 0.21522,-0.34957 z m -43.126651,-0.93993 c 0,-0.0363 0.12938,-0.17394 0.287511,-0.30588 0.260576,-0.21742 0.266387,-0.21123 0.06203,0.066 -0.214626,0.29115 -0.34954,0.38374 -0.34954,0.23989 z m 41.699361,-2.50044 c 0.1186,-0.0505 0.2603,-0.0443 0.31489,0.0138 0.0546,0.0581 -0.0424,0.0994 -0.21563,0.0918 -0.19139,-0.008 -0.23032,-0.0498 -0.0993,-0.1056 z m -58.416073,-0.70023 c 0.158131,-0.044 0.416891,-0.044 0.575022,0 0.158131,0.044 0.02875,0.0799 -0.287511,0.0799 -0.316262,0 -0.445642,-0.036 -0.287511,-0.0799 z m 23.661176,-6.4e-4 c 0.159851,-0.0443 0.381645,-0.0414 0.492876,0.006 0.111231,0.0479 -0.01956,0.0841 -0.290638,0.0806 -0.271082,-0.004 -0.362089,-0.0427 -0.202238,-0.0871 z M 41.370898,180.39073 c 0.204365,-0.0418 0.50009,-0.0402 0.657168,0.004 0.157078,0.0437 -0.01013,0.0779 -0.371573,0.076 -0.361442,-0.002 -0.48996,-0.0377 -0.285595,-0.0795 z m 68.425702,0.003 c 0.15813,-0.044 0.41689,-0.044 0.57503,0 0.15813,0.044 0.0288,0.0799 -0.28752,0.0799 -0.31626,0 -0.44564,-0.036 -0.28751,-0.0799 z m -5.6578,-9.43745 c 0.1186,-0.0505 0.2603,-0.0443 0.31489,0.0138 0.0546,0.0581 -0.0424,0.0994 -0.21563,0.0918 -0.19139,-0.008 -0.23032,-0.0498 -0.0993,-0.1056 z m 115.82586,0 c 0.1186,-0.0505 0.2603,-0.0443 0.3149,0.0138 0.0546,0.0581 -0.0425,0.0994 -0.21564,0.0918 -0.19139,-0.008 -0.23032,-0.0498 -0.0993,-0.1056 z m -119.91479,-1.75957 -0.398298,-0.48066 0.451798,0.42374 c 0.42228,0.39605 0.52715,0.53759 0.3983,0.53759 -0.0294,0 -0.23274,-0.2163 -0.4518,-0.48067 z m 4.08893,-40.71382 c 0.1186,-0.0505 0.2603,-0.0443 0.31489,0.0138 0.0546,0.0581 -0.0424,0.0994 -0.21563,0.0918 -0.19139,-0.008 -0.23032,-0.0498 -0.0993,-0.1056 z m 115.82586,0 c 0.1186,-0.0505 0.2603,-0.0443 0.3149,0.0138 0.0546,0.0581 -0.0425,0.0994 -0.21564,0.0918 -0.19139,-0.008 -0.23032,-0.0498 -0.0993,-0.1056 z M 100.36993,127.0729 c -0.20436,-0.27722 -0.19855,-0.2834 0.062,-0.066 0.15813,0.13194 0.28751,0.26958 0.28751,0.30588 0,0.14385 -0.13491,0.0513 -0.34954,-0.23989 z m -0.30763,-8.52089 c 0.21223,-0.24034 0.42283,-0.43697 0.46801,-0.43697 0.0452,0 -0.0915,0.19663 -0.30372,0.43697 -0.21222,0.24033 -0.422823,0.43696 -0.468003,0.43696 -0.04518,0 0.09149,-0.19663 0.303713,-0.43696 z m 123.94271,-0.1311 -0.31297,-0.39327 0.36965,0.33297 c 0.34739,0.31291 0.44445,0.45358 0.31298,0.45358 -0.0312,0 -0.19752,-0.17698 -0.36966,-0.39328 z M 206.31816,92.655215 c 0.11295,-0.04849 0.29778,-0.04849 0.41073,0 0.11295,0.04849 0.0205,0.08816 -0.20537,0.08816 -0.2259,0 -0.31831,-0.03967 -0.20536,-0.08816 z m 34.02856,-1.58842 c -0.20436,-0.277223 -0.19855,-0.283406 0.062,-0.06599 0.27367,0.228337 0.3607,0.37187 0.22548,0.37187 -0.0341,0 -0.1635,-0.137645 -0.28751,-0.305878 z m -1.9715,-2.272239 c -0.20436,-0.277223 -0.19855,-0.283406 0.062,-0.06599 0.27367,0.228337 0.3607,0.37187 0.22549,0.37187 -0.0341,0 -0.1635,-0.137645 -0.28751,-0.305878 z m -1.88402,-2.184845 -0.31297,-0.393273 0.36966,0.332969 c 0.34738,0.312908 0.44445,0.453576 0.31297,0.453576 -0.0312,0 -0.19752,-0.176973 -0.36966,-0.393272 z M 103.15305,86.009645 c 0.11859,-0.05049 0.2603,-0.04428 0.31489,0.0138 0.0546,0.05808 -0.0424,0.09939 -0.21563,0.0918 -0.1914,-0.0084 -0.23033,-0.0498 -0.0993,-0.105601 z m 131.94485,-1.060417 -0.3983,-0.480666 0.4518,0.42374 c 0.2485,0.233057 0.45181,0.449357 0.45181,0.480666 0,0.137082 -0.13305,0.02551 -0.50531,-0.42374 z m -1.89254,-2.184845 -0.31297,-0.393272 0.36966,0.332968 c 0.34738,0.312908 0.44445,0.453576 0.31297,0.453576 -0.0312,0 -0.19752,-0.176972 -0.36966,-0.393272 z m -36.48304,-2.665511 c 6e-4,-0.769065 0.0295,-1.06194 0.0642,-0.650833 0.0347,0.411107 0.0342,1.040342 -0.001,1.398301 -0.0353,0.357958 -0.0637,0.0216 -0.0631,-0.747468 z m 34.58834,0.480666 c -0.20436,-0.277223 -0.19855,-0.283405 0.062,-0.06599 0.27367,0.228337 0.3607,0.37187 0.22548,0.37187 -0.0341,0 -0.1635,-0.137645 -0.28751,-0.305878 z m -3.36264,-3.932721 -0.31297,-0.393272 0.36965,0.332968 c 0.34739,0.312908 0.44445,0.453576 0.31298,0.453576 -0.0312,0 -0.19752,-0.176972 -0.36966,-0.393272 z m -1.72189,-2.010057 -0.3983,-0.480666 0.45181,0.42374 c 0.24849,0.233057 0.4518,0.449356 0.4518,0.480666 0,0.137081 -0.13304,0.02551 -0.50531,-0.42374 z m -122.5052,-0.339611 c 0.15985,-0.04432 0.38164,-0.0414 0.49287,0.0065 0.11123,0.04788 -0.0196,0.08414 -0.29064,0.08058 -0.27108,-0.0036 -0.36208,-0.04274 -0.20223,-0.08705 z m 54.54494,0 c 0.15985,-0.04432 0.38165,-0.0414 0.49288,0.0065 0.11123,0.04788 -0.0196,0.08414 -0.29064,0.08058 -0.27108,-0.0036 -0.36209,-0.04274 -0.20224,-0.08705 z m 66.23202,-1.670447 -0.31298,-0.393272 0.36966,0.332968 c 0.34739,0.312908 0.44445,0.453576 0.31297,0.453576 -0.0312,0 -0.19752,-0.176972 -0.36965,-0.393272 z m -1.80721,-2.097451 -0.31298,-0.393272 0.36966,0.332968 c 0.34738,0.312908 0.44445,0.453576 0.31297,0.453576 -0.0312,0 -0.19752,-0.176973 -0.36965,-0.393272 z m -1.88619,-2.184845 -0.39829,-0.480666 0.4518,0.42374 c 0.24849,0.233057 0.4518,0.449357 0.4518,0.480666 0,0.137081 -0.13304,0.02551 -0.50531,-0.42374 z m -1.48715,-1.747876 c -0.20436,-0.277223 -0.19854,-0.283405 0.062,-0.06599 0.27367,0.228337 0.3607,0.37187 0.22548,0.37187 -0.0341,0 -0.16349,-0.137645 -0.28751,-0.305878 z m -1.9715,-2.272239 c -0.20436,-0.277223 -0.19855,-0.283405 0.062,-0.06599 0.15813,0.131937 0.28751,0.269583 0.28751,0.305878 0,0.143856 -0.13492,0.05127 -0.34954,-0.239886 z m -1.88401,-2.184845 -0.31298,-0.393272 0.36966,0.332968 c 0.34739,0.312908 0.44445,0.453576 0.31297,0.453576 -0.0312,0 -0.19752,-0.176973 -0.36965,-0.393272 z m -1.39331,-1.660483 -0.3983,-0.480665 0.45181,0.42374 c 0.24849,0.233057 0.4518,0.449356 0.4518,0.480666 0,0.137081 -0.13304,0.02551 -0.50531,-0.423741 z m -1.89253,-2.184845 -0.31298,-0.393272 0.36966,0.332968 c 0.34739,0.312908 0.44445,0.453576 0.31297,0.453576 -0.0312,0 -0.19752,-0.176972 -0.36965,-0.393272 z m -1.89471,-2.184845 c -0.20436,-0.277223 -0.19854,-0.283405 0.062,-0.06599 0.27367,0.228338 0.3607,0.371871 0.22548,0.371871 -0.0341,0 -0.16349,-0.137646 -0.28751,-0.305879 z m -3.36264,-3.932721 -0.31297,-0.393272 0.36966,0.332968 c 0.34738,0.312908 0.44444,0.453576 0.31297,0.453576 -0.0312,0 -0.19752,-0.176972 -0.36966,-0.393272 z m -1.72189,-2.010057 -0.39829,-0.480666 0.4518,0.42374 c 0.24849,0.233057 0.4518,0.449357 0.4518,0.480666 0,0.137081 -0.13304,0.02551 -0.50531,-0.42374 z m -121.702,-0.393272 c 0,-0.240333 0.03729,-0.338651 0.08287,-0.218485 0.04558,0.120167 0.04558,0.316803 0,0.436969 -0.04558,0.120167 -0.08287,0.02185 -0.08287,-0.218484 z m 119.97376,-1.616786 -0.31297,-0.393272 0.36965,0.332968 c 0.34739,0.312908 0.44445,0.453576 0.31298,0.453576 -0.0312,0 -0.19752,-0.176972 -0.36966,-0.393272 z m -1.80721,-2.097451 -0.31298,-0.393272 0.36966,0.332968 c 0.34739,0.312908 0.44445,0.453576 0.31298,0.453576 -0.0312,0 -0.19753,-0.176972 -0.36966,-0.393272 z m -1.88618,-2.184845 -0.3983,-0.480666 0.4518,0.42374 c 0.24849,0.233057 0.45181,0.449357 0.45181,0.480666 0,0.137081 -0.13305,0.02552 -0.50531,-0.42374 z M 90.492293,42.658365 c 0.203311,-0.04166 0.536002,-0.04166 0.739314,0 0.203311,0.04166 0.03697,0.07575 -0.369657,0.07575 -0.406623,0 -0.572969,-0.03409 -0.369657,-0.07575 z m 107.795677,-0.5321 c -0.20436,-0.277223 -0.19855,-0.283405 0.062,-0.06599 0.15813,0.131937 0.28751,0.269583 0.28751,0.305878 0,0.143856 -0.13492,0.05127 -0.34954,-0.239886 z"
         id="path8" /><path
         style="fill:#b9b9b9;fill-opacity:1"
         d="m 90.338269,247.16382 c 0.118598,-0.0505 0.2603,-0.0443 0.314893,0.0138 0.05459,0.0581 -0.04244,0.0994 -0.215633,0.0918 -0.191391,-0.008 -0.230321,-0.0498 -0.09926,-0.1056 z m 142.112581,0 c 0.1186,-0.0505 0.26031,-0.0443 0.3149,0.0138 0.0546,0.0581 -0.0424,0.0994 -0.21564,0.0918 -0.19139,-0.008 -0.23032,-0.0498 -0.0993,-0.1056 z m -142.780017,-2.2686 c 0.11295,-0.0485 0.297779,-0.0485 0.41073,0 0.11295,0.0485 0.02054,0.0882 -0.205365,0.0882 -0.225902,0 -0.318316,-0.0397 -0.205365,-0.0882 z m 143.262627,0 c 0.11295,-0.0485 0.29778,-0.0485 0.41073,0 0.11295,0.0485 0.0205,0.0882 -0.20536,0.0882 -0.2259,0 -0.31832,-0.0397 -0.20537,-0.0882 z m 8.59723,-7.50207 c 0.008,-0.20362 0.0468,-0.24503 0.0993,-0.1056 0.0475,0.12618 0.0416,0.27693 -0.013,0.33501 -0.0546,0.0581 -0.0934,-0.0452 -0.0863,-0.22941 z M 83.330458,235.22287 c 0,-0.24033 0.03729,-0.33865 0.08287,-0.21848 0.04558,0.12016 0.04558,0.3168 0,0.43697 -0.04558,0.12016 -0.08287,0.0219 -0.08287,-0.21849 z m 32.339582,-2.33823 c 0,-0.0363 0.12938,-0.17394 0.28751,-0.30588 0.26058,-0.21741 0.26639,-0.21123 0.062,0.066 -0.21462,0.29115 -0.34954,0.38374 -0.34954,0.23988 z m 2.81891,-6.92551 c 0,-0.24033 0.0373,-0.33865 0.0829,-0.21848 0.0456,0.12016 0.0456,0.3168 0,0.43696 -0.0456,0.12017 -0.0829,0.0219 -0.0829,-0.21848 z m -67.416471,-4.13952 c 0.118598,-0.0505 0.2603,-0.0443 0.314893,0.0138 0.05459,0.0581 -0.04244,0.0994 -0.215633,0.0918 -0.191391,-0.008 -0.230321,-0.0498 -0.09926,-0.10561 z m 26.526018,-0.002 c 0.159851,-0.0443 0.381645,-0.0414 0.492876,0.006 0.111231,0.0479 -0.01956,0.0841 -0.290638,0.0806 -0.271082,-0.004 -0.362089,-0.0427 -0.202238,-0.0871 z m -16.637693,-2.56668 c 0,-0.0363 0.12938,-0.17394 0.287511,-0.30588 0.260577,-0.21741 0.266388,-0.21123 0.06203,0.066 -0.214626,0.29115 -0.349541,0.38374 -0.349541,0.23989 z m -6.602485,-1.6265 c 0.118599,-0.0505 0.2603,-0.0443 0.314893,0.0138 0.05459,0.0581 -0.04244,0.0994 -0.215633,0.0918 -0.191391,-0.008 -0.230321,-0.0498 -0.09926,-0.1056 z m 4.384543,-2.15284 c 0.163551,-0.19226 0.33433,-0.34957 0.379511,-0.34957 0.04518,0 -0.05167,0.15731 -0.215219,0.34957 -0.16355,0.19227 -0.33433,0.34958 -0.37951,0.34958 -0.04518,0 0.05167,-0.15731 0.215218,-0.34958 z m -12.008926,-0.39327 -0.312974,-0.39327 0.369657,0.33297 c 0.203311,0.18313 0.369657,0.3601 0.369657,0.39327 0,0.13987 -0.132222,0.0366 -0.42634,-0.33297 z m 38.390764,-0.0583 c 0.0079,-0.20362 0.04681,-0.24504 0.09926,-0.1056 0.04746,0.12617 0.04162,0.27693 -0.01297,0.33501 -0.05459,0.0581 -0.09342,-0.0452 -0.08629,-0.22941 z m 133.5183,-1.5978 c 0.29529,-0.0389 0.73888,-0.0381 0.98575,0.002 0.24688,0.0399 0.005,0.0717 -0.53689,0.0707 -0.54216,-9.8e-4 -0.74415,-0.0336 -0.44886,-0.0725 z m -138.229203,-0.61618 -0.312974,-0.39327 0.369657,0.33297 c 0.203312,0.18313 0.369657,0.3601 0.369657,0.39327 0,0.13987 -0.132221,0.0366 -0.42634,-0.33297 z m 3.939784,-12.01665 c 0,-1.20166 0.02625,-1.69325 0.05833,-1.09242 0.03208,0.60083 0.03208,1.58401 0,2.18485 -0.03208,0.60083 -0.05833,0.10924 -0.05833,-1.09243 z m -27.685325,0.74285 c -0.204358,-0.27722 -0.198547,-0.2834 0.06203,-0.066 0.273669,0.22834 0.3607,0.37187 0.225482,0.37187 -0.03412,0 -0.163496,-0.13765 -0.287511,-0.30588 z m 22.836589,0 c -0.204358,-0.27722 -0.198547,-0.2834 0.06203,-0.066 0.158131,0.13194 0.287511,0.26958 0.287511,0.30588 0,0.14385 -0.134914,0.0513 -0.34954,-0.23989 z m 140.624105,0.18648 c 0.1186,-0.0505 0.2603,-0.0443 0.3149,0.0138 0.0546,0.0581 -0.0424,0.0994 -0.21564,0.0918 -0.19139,-0.008 -0.23032,-0.0498 -0.0993,-0.1056 z M 74.89482,199.97116 c 0.118598,-0.0505 0.2603,-0.0443 0.314893,0.0138 0.05459,0.0581 -0.04244,0.0994 -0.215633,0.0918 -0.191391,-0.008 -0.230321,-0.0498 -0.09926,-0.1056 z m -31.184676,-0.12138 c 0,-0.0363 0.12938,-0.17394 0.287511,-0.30587 0.260576,-0.21742 0.266387,-0.21123 0.06203,0.066 -0.214626,0.29115 -0.34954,0.38374 -0.34954,0.23988 z m 42.906154,-1.3323 c 0,-0.24034 0.03729,-0.33866 0.08287,-0.21849 0.04558,0.12017 0.04558,0.3168 0,0.43697 -0.04558,0.12017 -0.08287,0.0219 -0.08287,-0.21848 z m 2.972389,-2.22265 c 0.248491,-0.04 0.655114,-0.04 0.903606,0 0.248491,0.0401 0.04518,0.0728 -0.451803,0.0728 -0.496984,0 -0.700295,-0.0328 -0.451803,-0.0728 z m 15.035663,-10e-4 c 0.29529,-0.0389 0.73888,-0.0381 0.98575,0.002 0.24687,0.0399 0.005,0.0717 -0.53689,0.0707 -0.54217,-9.8e-4 -0.74415,-0.0336 -0.44886,-0.0725 z m -53.641158,-0.51881 c 0.15985,-0.0443 0.381645,-0.0414 0.492876,0.006 0.111231,0.0479 -0.01956,0.0841 -0.290638,0.0806 -0.271082,-0.004 -0.362089,-0.0427 -0.202238,-0.0871 z m 1.807212,0 c 0.159851,-0.0443 0.381645,-0.0414 0.492876,0.006 0.111231,0.0479 -0.01956,0.0841 -0.290638,0.0806 -0.271082,-0.004 -0.362089,-0.0427 -0.202238,-0.0871 z m 21.850837,0 c 0.15985,-0.0443 0.381645,-0.0414 0.492876,0.006 0.111231,0.0479 -0.01956,0.0841 -0.290638,0.0806 -0.271082,-0.004 -0.362089,-0.0427 -0.202238,-0.0871 z m 1.639793,6.4e-4 c 0.158131,-0.044 0.416891,-0.044 0.575022,0 0.158131,0.044 0.02875,0.0799 -0.287511,0.0799 -0.316262,0 -0.445642,-0.036 -0.287511,-0.0799 z m 42.207916,-6.69624 c 0,-0.24033 0.0373,-0.33865 0.0829,-0.21848 0.0456,0.12017 0.0456,0.3168 0,0.43697 -0.0456,0.12017 -0.0829,0.0219 -0.0829,-0.21849 z m -83.321991,-6.20496 c 0.212224,-0.24033 0.422827,-0.43696 0.468007,-0.43696 0.04518,0 -0.09149,0.19663 -0.303715,0.43696 -0.212223,0.24034 -0.422826,0.43697 -0.468007,0.43697 -0.04518,0 0.09149,-0.19663 0.303715,-0.43697 z m 76.529271,-2.30424 c 0.1186,-0.0505 0.2603,-0.0443 0.31489,0.0138 0.0546,0.0581 -0.0424,0.0994 -0.21563,0.0918 -0.19139,-0.008 -0.23032,-0.0498 -0.0993,-0.1056 z m -59.730413,-0.18645 c 5.399046,-0.0256 14.233849,-0.0256 19.632895,0 5.399046,0.0256 0.981645,0.0465 -9.816448,0.0465 -10.798092,0 -15.215493,-0.0209 -9.816447,-0.0465 z m 31.414725,-0.0874 c -0.04288,-0.12017 -0.05894,-29.04533 -0.03569,-64.27814 l 0.04226,-64.059662 0.04085,64.189702 0.04085,64.1897 13.102288,0.0458 13.10228,0.0458 -13.107436,0.0426 c -10.36448,0.0337 -13.123758,-0.003 -13.185399,-0.17585 z m 21.323008,-9.34053 c 0.15813,-0.044 0.41689,-0.044 0.57502,0 0.15813,0.044 0.0288,0.0799 -0.28751,0.0799 -0.31626,0 -0.44564,-0.036 -0.28751,-0.0799 z m 114.34724,0 c 0.15813,-0.044 0.41689,-0.044 0.57502,0 0.15813,0.044 0.0288,0.0799 -0.28751,0.0799 -0.31626,0 -0.44564,-0.036 -0.28751,-0.0799 z m -118.90634,-10.0172 c 0.16355,-0.19227 0.33433,-0.34958 0.37951,-0.34958 0.0452,0 -0.0517,0.15731 -0.21522,0.34958 -0.16355,0.19227 -0.33433,0.34958 -0.37951,0.34958 -0.04518,0 0.05167,-0.15731 0.21522,-0.34958 z m 4.5591,-32.45619 c 0.15813,-0.044 0.41689,-0.044 0.57502,0 0.15813,0.044 0.0288,0.0799 -0.28751,0.0799 -0.31626,0 -0.44564,-0.036 -0.28751,-0.0799 z m 114.34724,0 c 0.15813,-0.044 0.41689,-0.044 0.57502,0 0.15813,0.044 0.0288,0.0799 -0.28751,0.0799 -0.31626,0 -0.44564,-0.036 -0.28751,-0.0799 z m 4.88769,-1.5186 c 0,-0.0363 0.12938,-0.17394 0.28751,-0.30588 0.26057,-0.21741 0.26638,-0.21123 0.062,0.066 -0.21463,0.29115 -0.34954,0.38374 -0.34954,0.23988 z M 103.97451,116.77226 c 0.11859,-0.0505 0.2603,-0.0443 0.31489,0.0138 0.0546,0.0581 -0.0424,0.0994 -0.21563,0.0918 -0.1914,-0.008 -0.23033,-0.0498 -0.0993,-0.1056 z m 116.15444,0 c 0.1186,-0.0505 0.2603,-0.0443 0.3149,0.0138 0.0546,0.0581 -0.0424,0.0994 -0.21564,0.0918 -0.19139,-0.008 -0.23032,-0.0498 -0.0993,-0.1056 z M 207.05747,92.650488 c 0.15813,-0.04396 0.41689,-0.04396 0.57502,0 0.15813,0.04396 0.0288,0.07993 -0.28751,0.07993 -0.31626,0 -0.44564,-0.03597 -0.28751,-0.07993 z m 34.03391,-0.622362 -0.31297,-0.393272 0.36965,0.332968 c 0.34739,0.312908 0.44445,0.453576 0.31298,0.453576 -0.0312,0 -0.19752,-0.176972 -0.36966,-0.393272 z m -1.31434,-1.573088 -0.31297,-0.393272 0.36966,0.332968 c 0.34738,0.312908 0.44445,0.453576 0.31297,0.453576 -0.0312,0 -0.19752,-0.176972 -0.36966,-0.393272 z m -39.68186,-0.262181 c -0.20436,-0.277223 -0.19855,-0.283406 0.062,-0.06599 0.15813,0.131937 0.28751,0.269582 0.28751,0.305878 0,0.143856 -0.13492,0.05127 -0.34954,-0.239886 z m -1.06255,-1.13612 -0.31298,-0.393272 0.36966,0.332968 c 0.34739,0.312908 0.44445,0.453576 0.31297,0.453576 -0.0312,0 -0.19752,-0.176972 -0.36965,-0.393272 z m 38.84971,-0.786544 c -0.20436,-0.277223 -0.19855,-0.283405 0.062,-0.06599 0.27367,0.228337 0.3607,0.37187 0.22548,0.37187 -0.0341,0 -0.1635,-0.137645 -0.28751,-0.305878 z m -1.9715,-2.272239 c -0.20436,-0.277223 -0.19855,-0.283405 0.062,-0.06599 0.27367,0.228337 0.3607,0.37187 0.22549,0.37187 -0.0341,0 -0.1635,-0.137645 -0.28751,-0.305878 z m -132.27519,0.01533 c 0.11295,-0.04849 0.29778,-0.04849 0.41073,0 0.11295,0.04849 0.0205,0.08816 -0.20536,0.08816 -0.2259,0 -0.31832,-0.03967 -0.20537,-0.08816 z m 54.87353,0 c 0.11295,-0.04849 0.29778,-0.04849 0.41073,0 0.11295,0.04849 0.0205,0.08816 -0.20536,0.08816 -0.2259,0 -0.31832,-0.03967 -0.20537,-0.08816 z m 3.16262,-1.173747 c 0,-0.03629 0.12938,-0.17394 0.28752,-0.305878 0.26057,-0.217413 0.26638,-0.211231 0.062,0.06599 -0.21462,0.291152 -0.34954,0.383743 -0.34954,0.239886 z M 99.877054,84.07529 c -0.204358,-0.277223 -0.198547,-0.283405 0.06203,-0.06599 0.158126,0.131938 0.287506,0.269583 0.287506,0.305879 0,0.143856 -0.13491,0.05127 -0.349535,-0.239887 z M 232.625,82.152627 c -0.20436,-0.277223 -0.19855,-0.283406 0.062,-0.06599 0.15814,0.131937 0.28752,0.269582 0.28752,0.305878 0,0.143856 -0.13492,0.05127 -0.34954,-0.239886 z m -1.88402,-2.184845 -0.31297,-0.393273 0.36966,0.332969 c 0.34738,0.312908 0.44445,0.453576 0.31297,0.453576 -0.0312,0 -0.19752,-0.176973 -0.36966,-0.393272 z M 196.74514,60.697448 c 1e-5,-9.997851 0.0198,-14.062205 0.0441,-9.031898 0.0242,5.030307 0.0242,13.210367 -2e-5,18.177911 -0.0242,4.967544 -0.044,0.851838 -0.044,-9.146013 z m 32.27395,17.260276 -0.39829,-0.480666 0.4518,0.42374 c 0.24849,0.233057 0.4518,0.449357 0.4518,0.480666 0,0.137082 -0.13304,0.02552 -0.50531,-0.42374 z m -1.72824,-2.010057 -0.31297,-0.393273 0.36965,0.332969 c 0.34739,0.312908 0.44445,0.453576 0.31298,0.453576 -0.0312,0 -0.19752,-0.176973 -0.36966,-0.393272 z M 117.77773,74.287195 c 7.43928,-0.02516 19.56404,-0.02516 26.94389,7e-6 7.37985,0.02516 1.29316,0.04575 -13.52598,0.04575 -14.81914,-3e-6 -20.8572,-0.02059 -13.41791,-0.04575 z m 107.70591,-0.43698 -0.31297,-0.393272 0.36965,0.332968 c 0.34739,0.312908 0.44445,0.453576 0.31298,0.453576 -0.0312,0 -0.19752,-0.176972 -0.36966,-0.393272 z m -1.56612,-1.83527 c -0.20436,-0.277222 -0.19855,-0.283405 0.062,-0.06599 0.15813,0.131938 0.28751,0.269583 0.28751,0.305879 0,0.143856 -0.13491,0.05127 -0.34954,-0.239887 z m -1.88401,-2.184845 -0.31298,-0.393272 0.36966,0.332968 c 0.34739,0.312908 0.44445,0.453577 0.31297,0.453577 -0.0312,0 -0.19752,-0.176973 -0.36965,-0.393273 z m -1.97151,-2.272238 -0.31297,-0.393273 0.36966,0.332969 c 0.34738,0.312908 0.44445,0.453576 0.31297,0.453576 -0.0312,0 -0.19752,-0.176973 -0.36966,-0.393272 z m -1.31433,-1.573089 -0.31298,-0.393272 0.36966,0.332968 c 0.34739,0.312908 0.44445,0.453576 0.31297,0.453576 -0.0312,0 -0.19752,-0.176972 -0.36965,-0.393272 z m -1.89471,-2.184845 c -0.20436,-0.277223 -0.19854,-0.283405 0.062,-0.06599 0.27367,0.228337 0.3607,0.37187 0.22548,0.37187 -0.0341,0 -0.16349,-0.137645 -0.28751,-0.305878 z m -1.9715,-2.272239 c -0.20436,-0.277223 -0.19855,-0.283405 0.062,-0.06599 0.27367,0.228337 0.3607,0.37187 0.22548,0.37187 -0.0341,0 -0.1635,-0.137645 -0.28751,-0.305878 z m -3.28584,-3.845327 c -0.20436,-0.277223 -0.19855,-0.283405 0.062,-0.06599 0.27367,0.228337 0.3607,0.37187 0.22548,0.37187 -0.0341,0 -0.1635,-0.137645 -0.28751,-0.305878 z m -1.88401,-2.184845 -0.31298,-0.393272 0.36966,0.332968 c 0.34739,0.312908 0.44445,0.453576 0.31297,0.453576 -0.0312,0 -0.19752,-0.176973 -0.36965,-0.393272 z m -1.64292,-1.922664 -0.31298,-0.393272 0.36966,0.332968 c 0.34739,0.312908 0.44445,0.453576 0.31297,0.453576 -0.0312,0 -0.19752,-0.176972 -0.36965,-0.393272 z m -1.80722,-2.097451 -0.31297,-0.393272 0.36966,0.332968 c 0.34738,0.312908 0.44445,0.453576 0.31297,0.453576 -0.0312,0 -0.19752,-0.176973 -0.36966,-0.393272 z m -1.80721,-2.097452 -0.31297,-0.393272 0.36966,0.332969 c 0.34738,0.312908 0.44444,0.453576 0.31297,0.453576 -0.0312,0 -0.19752,-0.176973 -0.36966,-0.393273 z m -1.56612,-1.835269 c -0.20436,-0.277223 -0.19854,-0.283406 0.062,-0.06599 0.15813,0.131937 0.28751,0.269582 0.28751,0.305878 0,0.143856 -0.13491,0.05127 -0.34954,-0.239886 z m -1.88401,-2.184845 -0.31297,-0.393273 0.36965,0.332969 c 0.34739,0.312908 0.44445,0.453576 0.31298,0.453576 -0.0312,0 -0.19752,-0.176973 -0.36966,-0.393272 z m -1.9715,-2.272239 -0.31298,-0.393272 0.36966,0.332968 c 0.34739,0.312908 0.44445,0.453576 0.31297,0.453576 -0.0312,0 -0.19752,-0.176973 -0.36965,-0.393272 z M 89.670833,42.66596 c 0.11295,-0.04849 0.297779,-0.04849 0.41073,0 0.11295,0.04849 0.02054,0.08816 -0.205365,0.08816 -0.225902,0 -0.318316,-0.03967 -0.205365,-0.08816 z m 108.047457,-1.151452 -0.31297,-0.393272 0.36965,0.332968 c 0.34739,0.312908 0.44445,0.453576 0.31298,0.453576 -0.0312,0 -0.19752,-0.176972 -0.36966,-0.393272 z M 90.338269,40.39008 c 0.118598,-0.05049 0.2603,-0.04428 0.314893,0.0138 0.05459,0.05808 -0.04244,0.09939 -0.215633,0.0918 -0.191391,-0.0084 -0.230321,-0.0498 -0.09926,-0.1056 z"
         id="path7" /><path
         style="fill:#a3a3a3;fill-opacity:1"
         d="m 90.906149,247.16209 c 0.159851,-0.0443 0.381645,-0.0414 0.492876,0.006 0.111231,0.0479 -0.01956,0.0841 -0.290637,0.0806 -0.271082,-0.004 -0.362089,-0.0427 -0.202239,-0.0871 z m 140.798251,0 c 0.15985,-0.0443 0.38164,-0.0414 0.49288,0.006 0.11123,0.0479 -0.0196,0.0841 -0.29064,0.0806 -0.27108,-0.004 -0.36209,-0.0427 -0.20224,-0.0871 z m -103.74014,-2.10741 c 18.55388,-0.0245 48.86576,-0.0245 67.35973,0 18.49396,0.0245 3.31352,0.0445 -33.73433,0.0445 -37.04785,0 -52.17928,-0.02 -33.6254,-0.0445 z m 113.5794,-8.25872 c 0,-0.24033 0.0373,-0.33865 0.0829,-0.21848 0.0456,0.12016 0.0456,0.3168 0,0.43697 -0.0456,0.12016 -0.0829,0.0218 -0.0829,-0.21849 z M 83.345949,236.1842 c 0.0018,-0.38453 0.03547,-0.52126 0.07477,-0.30384 0.0393,0.21742 0.0378,0.53204 -0.0033,0.69915 -0.04112,0.16712 -0.07327,-0.0108 -0.07145,-0.39531 z m -42.295282,-1.60509 c 0.118598,-0.0505 0.2603,-0.0443 0.314893,0.0138 0.05459,0.0581 -0.04244,0.0994 -0.215634,0.0918 -0.19139,-0.008 -0.23032,-0.0498 -0.09926,-0.1056 z m 69.331223,0 c 0.1186,-0.0505 0.2603,-0.0443 0.3149,0.0138 0.0546,0.0581 -0.0424,0.0994 -0.21564,0.0918 -0.19139,-0.008 -0.23032,-0.0498 -0.0993,-0.1056 z m 129.24567,-70.93176 c 0,-38.93394 0.0188,-54.88754 0.0419,-35.45243 0.023,19.4351 0.023,51.29014 0,70.78898 -0.023,19.49883 -0.0419,3.59739 -0.0419,-35.33655 z m -206.583426,62.5594 c 0.0079,-0.20362 0.04681,-0.24504 0.09926,-0.10561 0.04746,0.12618 0.04162,0.27693 -0.01297,0.33501 -0.05459,0.0581 -0.09342,-0.0452 -0.08629,-0.2294 z m 85.463616,-1.29635 c 0,-0.4326 0.032,-0.60957 0.0712,-0.39327 0.0392,0.2163 0.0392,0.57025 0,0.78655 -0.0392,0.2163 -0.0712,0.0393 -0.0712,-0.39328 z m -74.654271,-6.77302 c -0.204358,-0.27722 -0.198547,-0.2834 0.06203,-0.066 0.273669,0.22834 0.360699,0.37187 0.225481,0.37187 -0.03412,0 -0.163496,-0.13764 -0.287511,-0.30588 z m 8.04046,-0.51267 c 0.118598,-0.0505 0.2603,-0.0443 0.314893,0.0138 0.05459,0.0581 -0.04244,0.0994 -0.215633,0.0918 -0.191391,-0.008 -0.230321,-0.0498 -0.09926,-0.1056 z m 1.971504,0 c 0.118599,-0.0505 0.2603,-0.0443 0.314893,0.0138 0.05459,0.0581 -0.04244,0.0994 -0.215633,0.0918 -0.191391,-0.008 -0.230321,-0.0498 -0.09926,-0.1056 z m 89.611017,-4.20659 c 13.71223,-0.0246 36.15041,-0.0246 49.86263,0 13.71222,0.0247 2.49313,0.0448 -24.93131,0.0448 -27.42445,0 -38.64354,-0.0202 -24.93132,-0.0448 z m -60.028607,-3.67054 c -0.204358,-0.27722 -0.198547,-0.28341 0.06203,-0.066 0.158131,0.13193 0.287511,0.26958 0.287511,0.30588 0,0.14385 -0.134914,0.0513 -0.34954,-0.23989 z m -23.667897,-4.18321 c 0.118598,-0.0505 0.2603,-0.0443 0.314893,0.0138 0.05459,0.0581 -0.04244,0.0994 -0.215634,0.0918 -0.191391,-0.008 -0.230321,-0.0498 -0.09926,-0.1056 z m 11.926365,-0.62345 -0.312974,-0.39327 0.369657,0.33297 c 0.203311,0.18313 0.369657,0.3601 0.369657,0.39327 0,0.13987 -0.132221,0.0366 -0.42634,-0.33297 z m 10.581639,0.27387 c 0.118599,-0.0505 0.260301,-0.0443 0.314893,0.0138 0.05459,0.0581 -0.04244,0.0994 -0.215633,0.0918 -0.191391,-0.008 -0.230321,-0.0498 -0.09926,-0.1056 z m -11.279402,-1.97805 c 0,-0.24033 0.03729,-0.33865 0.08287,-0.21848 0.04558,0.12016 0.04558,0.3168 0,0.43697 -0.04558,0.12016 -0.08287,0.0218 -0.08287,-0.21849 z m -9.161937,-2.27224 c 0,-1.2978 0.02586,-1.82871 0.05747,-1.17981 0.03161,0.64889 0.03161,1.71073 0,2.35963 -0.03161,0.6489 -0.05747,0.11798 -0.05747,-1.17982 z m 157.614899,0.75818 c 0.11295,-0.0485 0.29778,-0.0485 0.41073,0 0.11295,0.0485 0.0205,0.0882 -0.20537,0.0882 -0.2259,0 -0.31831,-0.0397 -0.20536,-0.0882 z M 51.883671,199.97481 c 0.112951,-0.0485 0.297779,-0.0485 0.41073,0 0.112951,0.0485 0.02054,0.0882 -0.205365,0.0882 -0.225902,0 -0.318316,-0.0397 -0.205365,-0.0882 z m 23.493757,0 c 0.112951,-0.0485 0.297779,-0.0485 0.41073,0 0.112951,0.0485 0.02054,0.0882 -0.205365,0.0882 -0.225902,0 -0.318316,-0.0397 -0.205365,-0.0882 z m 13.482213,-3.67419 c 0.118598,-0.0505 0.2603,-0.0443 0.314893,0.0138 0.05459,0.0581 -0.04244,0.0994 -0.215633,0.0918 -0.191391,-0.008 -0.230321,-0.0498 -0.09926,-0.10561 z m 2.946988,-0.01 c 0.564753,-0.0341 1.488896,-0.0341 2.05365,0 0.564753,0.0341 0.102682,0.0621 -1.026825,0.0621 -1.129508,0 -1.591579,-0.0279 -1.026825,-0.0621 z m 12.003581,0.01 c 0.1186,-0.0505 0.2603,-0.0443 0.3149,0.0138 0.0546,0.0581 -0.0425,0.0994 -0.21564,0.0918 -0.19139,-0.008 -0.23032,-0.0498 -0.0993,-0.10561 z m 3.11772,-0.0102 c 0.5683,-0.0342 1.45547,-0.0339 1.97151,6.3e-4 0.51603,0.0346 0.0511,0.0626 -1.03327,0.0622 -1.08432,-3.5e-4 -1.50653,-0.0286 -0.93824,-0.0629 z m -53.391071,-0.51417 c 0.118599,-0.0505 0.2603,-0.0443 0.314893,0.0138 0.05459,0.0581 -0.04244,0.0994 -0.215633,0.0918 -0.191391,-0.008 -0.230321,-0.0498 -0.09926,-0.1056 z m 20.536501,0 c 0.118598,-0.0505 0.2603,-0.0443 0.314893,0.0138 0.05459,0.0581 -0.04244,0.0994 -0.215633,0.0918 -0.191391,-0.008 -0.230321,-0.0498 -0.09926,-0.1056 z m 44.43439,-5.64859 c 0,-0.4326 0.032,-0.60957 0.0712,-0.39327 0.0392,0.2163 0.0392,0.57024 0,0.78654 -0.0392,0.2163 -0.0712,0.0393 -0.0712,-0.39327 z M 33.044134,188.8022 c 0.0079,-0.20362 0.04681,-0.24504 0.09926,-0.1056 0.04746,0.12617 0.04162,0.27693 -0.01297,0.33501 -0.05459,0.0581 -0.09342,-0.0452 -0.08629,-0.22941 z m 7.020781,-8.23246 c 0.118598,-0.0505 0.2603,-0.0443 0.314893,0.0138 0.05459,0.0581 -0.04244,0.0994 -0.215634,0.0918 -0.19139,-0.008 -0.23032,-0.0498 -0.09926,-0.1056 z m 93.718325,-9.62501 c 15.60979,-0.0246 41.15309,-0.0246 56.76288,0 15.6098,0.0246 2.83815,0.0447 -28.38144,0.0447 -31.21959,0 -43.99124,-0.0201 -28.38144,-0.0447 z m -29.40515,-11.7008 c 0.15985,-0.0443 0.38165,-0.0414 0.49288,0.006 0.11123,0.0479 -0.0196,0.0841 -0.29064,0.0806 -0.27108,-0.004 -0.36209,-0.0427 -0.20224,-0.0871 z m 115.24772,0.005 c 0.11295,-0.0485 0.29778,-0.0485 0.41073,0 0.11295,0.0485 0.0205,0.0882 -0.20536,0.0882 -0.22591,0 -0.31832,-0.0397 -0.20537,-0.0882 z m -85.84257,-30.77794 c 15.60979,-0.0246 41.15309,-0.0246 56.76288,0 15.6098,0.0246 2.83815,0.0447 -28.38144,0.0447 -31.21959,0 -43.99124,-0.0201 -28.38144,-0.0447 z m -28.9946,-11.70636 c 0.29529,-0.0389 0.73888,-0.0381 0.98575,0.002 0.24687,0.0399 0.005,0.0717 -0.53689,0.0707 -0.54216,-9.8e-4 -0.74415,-0.0336 -0.44886,-0.0725 z m 113.85436,0 c 0.29529,-0.0389 0.73888,-0.0381 0.98575,0.002 0.24688,0.0399 0.005,0.0717 -0.53689,0.0707 -0.54216,-9.8e-4 -0.74415,-0.0336 -0.44886,-0.0725 z m -2.9602,-24.125067 c 4.3599,-0.0259 11.49428,-0.0259 15.85418,0 4.3599,0.0259 0.79271,0.04709 -7.92709,0.04709 -8.7198,0 -12.28699,-0.02119 -7.92709,-0.04709 z m -10.35039,-0.159495 c 0.11295,-0.04849 0.29777,-0.04849 0.41073,0 0.11295,0.04849 0.0205,0.08816 -0.20537,0.08816 -0.2259,0 -0.31832,-0.03967 -0.20536,-0.08816 z m 35.1786,-1.064058 c -0.20436,-0.277223 -0.19855,-0.283405 0.062,-0.06599 0.27367,0.228337 0.3607,0.37187 0.22548,0.37187 -0.0341,0 -0.16349,-0.137645 -0.28751,-0.305878 z m -1.39113,-1.660483 -0.31298,-0.393272 0.36966,0.332969 c 0.34739,0.312908 0.44445,0.453576 0.31297,0.453576 -0.0312,0 -0.19752,-0.176973 -0.36965,-0.393273 z m -39.51758,-0.08739 c -0.20436,-0.277223 -0.19855,-0.283405 0.062,-0.06599 0.27367,0.228337 0.3607,0.37187 0.22548,0.37187 -0.0341,0 -0.16349,-0.137645 -0.28751,-0.305878 z m 37.71036,-2.010058 -0.31297,-0.393272 0.36966,0.332968 c 0.34738,0.312908 0.44445,0.453576 0.31297,0.453576 -0.0312,0 -0.19752,-0.176972 -0.36966,-0.393272 z M 104.45903,86.005424 c 0.20436,-0.04181 0.50009,-0.04022 0.65717,0.0035 0.15707,0.04375 -0.0101,0.07795 -0.37158,0.07601 -0.36144,-0.0019 -0.48996,-0.03773 -0.28559,-0.07954 z m 52.90011,2.67e-4 c 0.20331,-0.04166 0.536,-0.04166 0.73931,0 0.20331,0.04166 0.037,0.07575 -0.36965,0.07575 -0.40663,0 -0.57297,-0.03409 -0.36966,-0.07575 z m 77.98202,-0.619494 -0.31297,-0.393272 0.36965,0.332968 c 0.34739,0.312908 0.44445,0.453576 0.31298,0.453576 -0.0312,0 -0.19752,-0.176972 -0.36966,-0.393272 z m -1.9715,-2.272239 -0.31298,-0.393272 0.36966,0.332969 c 0.34739,0.312908 0.44445,0.453576 0.31297,0.453576 -0.0312,0 -0.19752,-0.176973 -0.36965,-0.393273 z m -1.39331,-1.660482 -0.3983,-0.480666 0.45181,0.42374 c 0.24849,0.233057 0.4518,0.449357 0.4518,0.480666 0,0.137082 -0.13304,0.02551 -0.50531,-0.42374 z m -1.89253,-2.184845 -0.31298,-0.393272 0.36966,0.332968 c 0.34738,0.312908 0.44445,0.453576 0.31297,0.453576 -0.0312,0 -0.19752,-0.176972 -0.36965,-0.393272 z m -1.80722,-2.097451 -0.31297,-0.393272 0.36966,0.332968 c 0.34738,0.312908 0.44445,0.453576 0.31297,0.453576 -0.0312,0 -0.19752,-0.176972 -0.36966,-0.393272 z m -1.64292,-1.922664 -0.31297,-0.393272 0.36966,0.332968 c 0.34738,0.312908 0.44445,0.453576 0.31297,0.453576 -0.0312,0 -0.19752,-0.176972 -0.36966,-0.393272 z m -1.80721,-2.097451 -0.31297,-0.393272 0.36965,0.332968 c 0.34739,0.312908 0.44445,0.453576 0.31298,0.453576 -0.0312,0 -0.19752,-0.176972 -0.36966,-0.393272 z m -3.37333,-3.932721 c -0.20436,-0.277223 -0.19855,-0.283405 0.062,-0.06599 0.15813,0.131937 0.28751,0.269583 0.28751,0.305878 0,0.143856 -0.13492,0.05127 -0.34954,-0.239886 z m -1.97151,-2.272239 c -0.20435,-0.277223 -0.19854,-0.283405 0.062,-0.06599 0.27367,0.228337 0.3607,0.37187 0.22549,0.37187 -0.0341,0 -0.1635,-0.137645 -0.28752,-0.305878 z m -3.19834,-3.757934 -0.31298,-0.393272 0.36966,0.332968 c 0.34739,0.312908 0.44445,0.453576 0.31297,0.453576 -0.0312,0 -0.19752,-0.176972 -0.36965,-0.393272 z m -1.89471,-2.184845 c -0.20436,-0.277223 -0.19854,-0.283405 0.062,-0.06599 0.27367,0.228338 0.3607,0.371871 0.22548,0.371871 -0.0341,0 -0.16349,-0.137646 -0.28751,-0.305879 z m -2.0483,-2.359632 -0.31298,-0.393273 0.36966,0.332969 c 0.34739,0.312908 0.44445,0.453576 0.31298,0.453576 -0.0312,0 -0.19753,-0.176973 -0.36966,-0.393272 z m -1.39331,-1.660483 -0.39829,-0.480666 0.4518,0.42374 c 0.24849,0.233057 0.4518,0.449357 0.4518,0.480666 0,0.137082 -0.13304,0.02551 -0.50531,-0.42374 z m -1.89253,-2.184845 -0.31298,-0.393272 0.36966,0.332968 c 0.34739,0.312908 0.44445,0.453576 0.31298,0.453576 -0.0312,0 -0.19753,-0.176972 -0.36966,-0.393272 z m -1.72189,-2.010057 -0.3983,-0.480666 0.45181,0.42374 c 0.24849,0.233057 0.4518,0.449357 0.4518,0.480666 0,0.137081 -0.13304,0.02551 -0.50531,-0.42374 z M 83.345949,51.433705 c 0.0018,-0.384533 0.03547,-0.521261 0.07477,-0.303841 0.0393,0.217421 0.0378,0.532039 -0.0033,0.699151 -0.04112,0.167112 -0.07327,-0.01078 -0.07145,-0.39531 z m 122.258361,-0.655454 -0.31298,-0.393272 0.36966,0.332968 c 0.34739,0.312908 0.44445,0.453576 0.31297,0.453576 -0.0312,0 -0.19752,-0.176972 -0.36965,-0.393272 z m -1.80722,-2.097451 -0.31297,-0.393272 0.36966,0.332968 c 0.34738,0.312908 0.44445,0.453576 0.31297,0.453576 -0.0312,0 -0.19752,-0.176972 -0.36966,-0.393272 z m -1.40182,-1.660482 c -0.20436,-0.277223 -0.19855,-0.283405 0.062,-0.06599 0.27366,0.228337 0.36069,0.37187 0.22548,0.37187 -0.0341,0 -0.1635,-0.137645 -0.28751,-0.305878 z m -1.97151,-2.272239 c -0.20436,-0.277223 -0.19854,-0.283405 0.062,-0.06599 0.27367,0.228337 0.3607,0.37187 0.22548,0.37187 -0.0341,0 -0.16349,-0.137645 -0.28751,-0.305878 z m -1.9715,-2.272239 c -0.20436,-0.277223 -0.19855,-0.283405 0.062,-0.06599 0.15813,0.131938 0.28751,0.269583 0.28751,0.305878 0,0.143857 -0.13492,0.05127 -0.34954,-0.239886 z m -78.63384,4e-6 c 14.07366,-0.02464 37.10329,-0.02464 51.17696,0 14.07366,0.02464 2.55884,0.0448 -25.58848,0.0448 -28.14733,0 -39.66215,-0.02016 -25.58848,-0.0448 z m 77.2427,-1.660486 -0.31297,-0.393272 0.36966,0.332968 c 0.34738,0.312908 0.44444,0.453576 0.31297,0.453576 -0.0312,0 -0.19752,-0.176973 -0.36966,-0.393272 z M 90.906149,40.388353 c 0.159851,-0.04432 0.381645,-0.0414 0.492876,0.0065 0.111231,0.04788 -0.01956,0.08414 -0.290637,0.08058 -0.271082,-0.0036 -0.362089,-0.04274 -0.202239,-0.08705 z"
         id="path6" /><path
         style="fill:#8c8c8c;fill-opacity:1"
         d="m 91.891034,247.15779 c 0.249734,-0.0402 0.619391,-0.0391 0.82146,0.002 0.202069,0.0415 -0.0023,0.0744 -0.454062,0.073 -0.451803,-0.001 -0.617132,-0.0353 -0.367398,-0.0754 z m 138.498166,0 c 0.24973,-0.0402 0.61939,-0.0391 0.82146,0.002 0.20206,0.0415 -0.002,0.0744 -0.45407,0.073 -0.4518,-0.001 -0.61713,-0.0353 -0.36739,-0.0754 z m -138.089695,-2.1 c 0.384032,-0.0368 1.012449,-0.0368 1.396482,0 0.384032,0.0368 0.06982,0.0669 -0.698241,0.0669 -0.768065,0 -1.082274,-0.0301 -0.698241,-0.0669 z m 137.188165,-2.3e-4 c 0.38642,-0.0369 0.97788,-0.0364 1.31434,0.001 0.33646,0.0376 0.0203,0.0678 -0.70258,0.0671 -0.72289,-6.4e-4 -0.99818,-0.0314 -0.61176,-0.0683 z M 84.269313,244.7051 c -0.204358,-0.27722 -0.198547,-0.2834 0.06203,-0.066 0.158131,0.13194 0.287511,0.26958 0.287511,0.30588 0,0.14385 -0.134914,0.0513 -0.34954,-0.23989 z m -2.910359,-7.20999 c 0,-0.24033 0.03729,-0.33865 0.08287,-0.21848 0.04558,0.12016 0.04558,0.3168 0,0.43697 -0.04558,0.12016 -0.08287,0.0218 -0.08287,-0.21849 z m 1.971504,-0.34957 c 0,-0.24034 0.03729,-0.33865 0.08287,-0.21849 0.04558,0.12017 0.04558,0.3168 0,0.43697 -0.04558,0.12017 -0.08287,0.0219 -0.08287,-0.21848 z m 158.228692,-1.31091 c 0.002,-0.38453 0.0355,-0.52126 0.0748,-0.30384 0.0393,0.21742 0.0378,0.53204 -0.003,0.69915 -0.0411,0.16711 -0.0733,-0.0108 -0.0714,-0.39531 z m -1.96203,-0.52436 c 9.3e-4,-0.5768 0.0316,-0.79169 0.0682,-0.47754 0.0366,0.31416 0.0358,0.78608 -0.002,1.04873 -0.0375,0.26264 -0.0674,0.006 -0.0665,-0.57119 z M 41.699482,234.57489 c 0.204365,-0.0418 0.50009,-0.0402 0.657168,0.004 0.157078,0.0437 -0.01013,0.078 -0.371572,0.076 -0.361443,-0.002 -0.489961,-0.0377 -0.285596,-0.0795 z m 67.688308,0 c 0.20436,-0.0418 0.50009,-0.0402 0.65717,0.004 0.15707,0.0437 -0.0101,0.078 -0.37158,0.076 -0.36144,-0.002 -0.48996,-0.0377 -0.28559,-0.0795 z m -74.570371,-2.80407 c -0.204358,-0.27723 -0.198547,-0.28341 0.06203,-0.066 0.273669,0.22833 0.3607,0.37187 0.225482,0.37187 -0.03412,0 -0.163496,-0.13765 -0.287511,-0.30588 z m -1.754227,-6.24866 c 0.0033,-0.2884 0.04017,-0.38522 0.08182,-0.21516 0.04165,0.17007 0.03892,0.40603 -0.0061,0.52437 -0.045,0.11833 -0.07908,-0.0208 -0.07574,-0.30921 z m 85.472868,-6.64193 c -7e-5,-2.98013 0.0223,-4.22384 0.0498,-2.76381 0.0275,1.46003 0.0275,3.89832 1.3e-4,5.41841 -0.0274,1.5201 -0.0498,0.32553 -0.0499,-2.6546 z m -64.999201,3.11417 c 0.118599,-0.0505 0.2603,-0.0443 0.314893,0.0138 0.05459,0.0581 -0.04244,0.0994 -0.215633,0.0918 -0.191391,-0.008 -0.230321,-0.0498 -0.09926,-0.1056 z m 22.015129,0 c 0.118598,-0.0505 0.2603,-0.0443 0.314893,0.0138 0.05459,0.0581 -0.04244,0.0994 -0.215633,0.0918 -0.191391,-0.008 -0.230321,-0.0498 -0.09926,-0.1056 z m 0.6469,0.004 c 0.112951,-0.0485 0.297779,-0.0485 0.41073,0 0.112951,0.0485 0.02054,0.0882 -0.205365,0.0882 -0.225902,0 -0.318316,-0.0397 -0.205365,-0.0882 z m -23.812073,-4.37333 c 0.118598,-0.0505 0.2603,-0.0443 0.314893,0.0138 0.05459,0.0581 -0.04244,0.0994 -0.215633,0.0918 -0.191391,-0.008 -0.230321,-0.0498 -0.09926,-0.1056 z m 23.986633,0 c 0.118599,-0.0505 0.2603,-0.0443 0.314893,0.0138 0.05459,0.0581 -0.04244,0.0994 -0.215633,0.0918 -0.191391,-0.008 -0.230321,-0.0498 -0.09926,-0.1056 z m -13.921045,-0.8565 c 0.0079,-0.20361 0.04681,-0.24503 0.09926,-0.1056 0.04746,0.12618 0.04162,0.27693 -0.01297,0.33501 -0.05459,0.0581 -0.09342,-0.0452 -0.08629,-0.22941 z m -21.310927,-7.5013 c 4.28e-4,-0.96133 0.02802,-1.3323 0.06131,-0.82438 0.03329,0.50792 0.03294,1.29447 -7.77e-4,1.74788 -0.03372,0.45341 -0.06096,0.0378 -0.06053,-0.9235 z m 41.813501,-0.0437 c -0.204358,-0.27723 -0.198547,-0.28341 0.06203,-0.066 0.158131,0.13194 0.287511,0.26959 0.287511,0.30588 0,0.14386 -0.134914,0.0513 -0.349541,-0.23988 z m -14.04162,-0.96134 -0.312974,-0.39327 0.369657,0.33297 c 0.347386,0.31291 0.444449,0.45358 0.312974,0.45358 -0.03118,0 -0.197521,-0.17698 -0.369657,-0.39328 z m -23.711615,-0.75741 c 0.0079,-0.20362 0.04681,-0.24503 0.09926,-0.1056 0.04746,0.12618 0.04162,0.27693 -0.01297,0.33501 -0.05459,0.0581 -0.09342,-0.0452 -0.08629,-0.22941 z m 98.616598,-5.79712 c 13.90026,-0.0246 36.5972,-0.0246 50.43765,0 13.84045,0.0247 2.46751,0.0448 -25.27319,0.0448 -27.74071,-1e-5 -39.06471,-0.0202 -25.16446,-0.0448 z m -25.28228,-5.54951 c -7e-5,-2.98013 0.0223,-4.22384 0.0498,-2.76381 0.0275,1.46003 0.0275,3.89832 1.3e-4,5.41842 -0.0274,1.52009 -0.0498,0.32552 -0.0499,-2.65461 z m -49.442801,2.01006 c 0.16355,-0.19227 0.33433,-0.34958 0.37951,-0.34958 0.04518,0 -0.05167,0.15731 -0.215218,0.34958 -0.163551,0.19227 -0.33433,0.34958 -0.379511,0.34958 -0.04518,0 0.05167,-0.15731 0.215219,-0.34958 z m 42.612821,-1.17982 c -0.20436,-0.27722 -0.19855,-0.2834 0.062,-0.066 0.27367,0.22834 0.3607,0.37187 0.22548,0.37187 -0.0341,0 -0.1635,-0.13764 -0.28751,-0.30588 z m -51.926124,-0.68746 c 0.118598,-0.0505 0.2603,-0.0443 0.314893,0.0138 0.05459,0.0581 -0.04244,0.0994 -0.215634,0.0918 -0.191391,-0.008 -0.230321,-0.0498 -0.09926,-0.10561 z m -26.716764,-6.78471 c 0.0033,-0.2884 0.04017,-0.38522 0.08182,-0.21515 0.04165,0.17006 0.03892,0.40602 -0.0061,0.52436 -0.045,0.11834 -0.07908,-0.0208 -0.07574,-0.30921 z m 7.494599,-8.94617 c 0.118598,-0.0505 0.2603,-0.0443 0.314893,0.0138 0.05459,0.0581 -0.04244,0.0994 -0.215634,0.0918 -0.19139,-0.008 -0.23032,-0.0498 -0.09926,-0.1056 z m 70.316979,0 c 0.1186,-0.0505 0.2603,-0.0443 0.31489,0.0138 0.0546,0.0581 -0.0424,0.0994 -0.21563,0.0918 -0.19139,-0.008 -0.23032,-0.0498 -0.0993,-0.1056 z m -12.246349,-15.4367 c 0,-0.4326 0.03204,-0.60957 0.0712,-0.39327 0.03916,0.2163 0.03916,0.57025 0,0.78654 -0.03916,0.2163 -0.0712,0.0393 -0.0712,-0.39327 z m 34.895039,-5.89908 c 15.73799,-0.0246 41.54005,-0.0246 57.33791,0 15.79785,0.0246 2.92131,0.0447 -28.61454,0.0447 -31.53585,1e-5 -44.46137,-0.0201 -28.72337,-0.0447 z M 98.628421,122.65965 c 0,-0.43259 0.03204,-0.60957 0.0712,-0.39327 0.03916,0.2163 0.03916,0.57025 0,0.78655 -0.03916,0.2163 -0.0712,0.0393 -0.0712,-0.39328 z m 35.483399,-5.89907 c 15.42907,-0.0246 40.67665,-0.0246 56.10572,0 15.42907,0.0246 2.80529,0.0447 -28.05286,0.0447 -30.85815,0 -43.48193,-0.0201 -28.05286,-0.0447 z m 72.12645,-24.289818 c 0.24973,-0.04018 0.61939,-0.0391 0.82146,0.0024 0.20207,0.04149 -0.002,0.07436 -0.45406,0.07305 -0.4518,-0.0013 -0.61713,-0.03526 -0.3674,-0.07543 z m 33.70307,-1.666149 -0.31298,-0.393272 0.36966,0.332968 c 0.34739,0.312908 0.44445,0.453576 0.31297,0.453576 -0.0312,0 -0.19752,-0.176972 -0.36965,-0.393272 z m -39.51758,-0.436969 c -0.20436,-0.277223 -0.19854,-0.283405 0.062,-0.06599 0.27367,0.228337 0.3607,0.37187 0.22548,0.37187 -0.0341,0 -0.16349,-0.137645 -0.28751,-0.305878 z m 37.54607,-1.83527 -0.31297,-0.393272 0.36965,0.332968 c 0.34739,0.312908 0.44445,0.453576 0.31298,0.453576 -0.0312,0 -0.19752,-0.176972 -0.36966,-0.393272 z m -1.31433,-1.573088 -0.31298,-0.393272 0.36966,0.332968 c 0.34739,0.312908 0.44445,0.453576 0.31297,0.453576 -0.0312,0 -0.19752,-0.176973 -0.36965,-0.393272 z m -118.38492,-0.96132 c 7.16819,-0.0252 18.84935,-0.0252 25.95813,6e-6 7.10879,0.0252 1.2439,0.04582 -13.03307,0.04582 -14.27698,-3e-6 -20.09326,-0.02062 -12.92506,-0.04583 z m 116.41341,-1.310919 -0.31297,-0.393272 0.36965,0.332968 c 0.34739,0.312908 0.44445,0.453576 0.31298,0.453576 -0.0312,0 -0.19752,-0.176972 -0.36966,-0.393272 z m -37.66346,-0.655454 c 0,-0.240333 0.0373,-0.338651 0.0829,-0.218484 0.0456,0.120166 0.0456,0.316802 0,0.436969 -0.0456,0.120166 -0.0829,0.02185 -0.0829,-0.218485 z m -0.17727,-1.325472 c 0.008,-0.203618 0.0468,-0.245035 0.0993,-0.105601 0.0475,0.126175 0.0416,0.276929 -0.013,0.335009 -0.0546,0.05808 -0.0934,-0.04515 -0.0863,-0.229408 z m 35.94603,-0.203919 c -0.20436,-0.277223 -0.19855,-0.283405 0.062,-0.06599 0.15813,0.131937 0.28751,0.269583 0.28751,0.305878 0,0.143856 -0.13492,0.05127 -0.34954,-0.239886 z m -1.7951,-2.097451 -0.56618,-0.655454 0.61609,0.602347 c 0.57345,0.560652 0.69164,0.70856 0.56618,0.70856 -0.0274,0 -0.3047,-0.294954 -0.61609,-0.655453 z M 98.628421,80.186266 c 0,-0.432599 0.03204,-0.609572 0.0712,-0.393272 0.03916,0.2163 0.03916,0.570245 0,0.786544 -0.03916,0.2163 -0.0712,0.03933 -0.0712,-0.393272 z m 130.798229,-1.616785 -0.31298,-0.393272 0.36966,0.332968 c 0.34739,0.312908 0.44445,0.453576 0.31297,0.453576 -0.0312,0 -0.19752,-0.176973 -0.36965,-0.393272 z m -1.80721,-2.097452 -0.31298,-0.393272 0.36966,0.332969 c 0.34738,0.312907 0.44445,0.453576 0.31297,0.453576 -0.0312,0 -0.19752,-0.176973 -0.36965,-0.393273 z m -1.80194,-2.097451 -0.48254,-0.56806 0.53395,0.513368 c 0.49771,0.47853 0.60946,0.622752 0.48254,0.622752 -0.0283,0 -0.26855,-0.255627 -0.53395,-0.56806 z m -1.6482,-1.922664 -0.31297,-0.393272 0.36966,0.332969 c 0.34738,0.312908 0.44445,0.453576 0.31297,0.453576 -0.0312,0 -0.19752,-0.176973 -0.36966,-0.393273 z m -1.88618,-2.184845 -0.39829,-0.480666 0.4518,0.423741 c 0.24849,0.233057 0.4518,0.449356 0.4518,0.480665 0,0.137082 -0.13304,0.02551 -0.50531,-0.42374 z m -1.39966,-1.660482 -0.31297,-0.393272 0.36966,0.332968 c 0.34738,0.312908 0.44445,0.453576 0.31297,0.453576 -0.0312,0 -0.19752,-0.176972 -0.36966,-0.393272 z m -1.9715,-2.272239 -0.31297,-0.393272 0.36965,0.332968 c 0.34739,0.312908 0.44445,0.453576 0.31298,0.453576 -0.0312,0 -0.19752,-0.176972 -0.36966,-0.393272 z m -1.9715,-2.272239 -0.31298,-0.393272 0.36966,0.332968 c 0.34738,0.312908 0.44445,0.453576 0.31297,0.453576 -0.0312,0 -0.19752,-0.176972 -0.36965,-0.393272 z m -1.31434,-1.573088 -0.31298,-0.393272 0.36966,0.332968 c 0.34739,0.312908 0.44445,0.453576 0.31298,0.453576 -0.0312,0 -0.19753,-0.176972 -0.36966,-0.393272 z m -1.88618,-2.184845 -0.3983,-0.480666 0.4518,0.42374 c 0.2485,0.233057 0.45181,0.449357 0.45181,0.480666 0,0.137081 -0.13305,0.02551 -0.50531,-0.42374 z m -1.98003,-2.272239 c -0.20436,-0.277223 -0.19855,-0.283405 0.062,-0.06599 0.27367,0.228337 0.3607,0.37187 0.22548,0.37187 -0.0341,0 -0.16349,-0.137645 -0.28751,-0.305878 z m -1.7951,-2.097451 -0.56618,-0.655454 0.6161,0.602347 c 0.57345,0.560652 0.69163,0.70856 0.56618,0.70856 -0.0275,0 -0.3047,-0.294954 -0.6161,-0.655453 z m -1.56754,-1.83527 -0.31297,-0.393272 0.36965,0.332968 c 0.34739,0.312908 0.44445,0.453576 0.31298,0.453576 -0.0312,0 -0.19752,-0.176973 -0.36966,-0.393272 z m -1.80721,-2.097451 -0.31298,-0.393273 0.36966,0.332969 c 0.34739,0.312908 0.44445,0.453576 0.31298,0.453576 -0.0312,0 -0.19753,-0.176973 -0.36966,-0.393272 z M 83.330458,50.472373 c 0,-0.240333 0.03729,-0.338651 0.08287,-0.218484 0.04558,0.120166 0.04558,0.316802 0,0.436969 -0.04558,0.120166 -0.08287,0.02185 -0.08287,-0.218485 z m -1.971504,-0.349575 c 0,-0.240333 0.03729,-0.338651 0.08287,-0.218485 0.04558,0.120167 0.04558,0.316803 0,0.436969 -0.04558,0.120167 -0.08287,0.02185 -0.08287,-0.218484 z m 123.429166,-0.218485 -0.48254,-0.568059 0.53395,0.513367 c 0.49771,0.47853 0.60947,0.622752 0.48254,0.622752 -0.0283,0 -0.26855,-0.255627 -0.53395,-0.56806 z m -1.64819,-1.922663 -0.31298,-0.393272 0.36966,0.332968 c 0.34739,0.312908 0.44445,0.453576 0.31297,0.453576 -0.0312,0 -0.19752,-0.176973 -0.36965,-0.393272 z m -1.88619,-2.184845 -0.39829,-0.480666 0.4518,0.42374 c 0.24849,0.233057 0.4518,0.449356 0.4518,0.480666 0,0.137081 -0.13304,0.02551 -0.50531,-0.42374 z m -1.39965,-1.660483 -0.31298,-0.393272 0.36966,0.332968 c 0.34739,0.312908 0.44445,0.453576 0.31297,0.453576 -0.0312,0 -0.19752,-0.176972 -0.36965,-0.393272 z M 84.125977,43.065302 c 0,-0.0363 0.12938,-0.173941 0.287511,-0.305879 0.260577,-0.217413 0.266388,-0.211231 0.06203,0.06599 -0.214626,0.291152 -0.349541,0.383743 -0.349541,0.239887 z m 8.173528,-0.586352 c 0.384032,-0.0368 1.012449,-0.0368 1.396482,0 0.384032,0.0368 0.06982,0.06691 -0.698241,0.06691 -0.768065,0 -1.082274,-0.03011 -0.698241,-0.06691 z m 105.583075,-0.614867 -0.31297,-0.393272 0.36966,0.332969 c 0.34738,0.312907 0.44444,0.453576 0.31297,0.453576 -0.0312,0 -0.19752,-0.176973 -0.36966,-0.393273 z M 91.891034,40.384055 c 0.249734,-0.04018 0.619391,-0.0391 0.82146,0.0024 0.202069,0.04149 -0.0023,0.07436 -0.454062,0.07305 -0.451803,-0.0013 -0.617132,-0.03526 -0.367398,-0.07543 z"
         id="path5" /><path
         style="fill:#767676;fill-opacity:1"
         d="m 127.21156,247.15213 c 18.86277,-0.0245 49.72913,-0.0245 68.59191,0 18.86278,0.0245 3.42959,0.0445 -34.29596,0.0445 -37.72555,0 -53.15873,-0.02 -34.29595,-0.0445 z m -36.141119,-2.08749 c 0.159851,-0.0443 0.381645,-0.0414 0.492876,0.006 0.111231,0.0479 -0.01956,0.0841 -0.290637,0.0806 -0.271082,-0.004 -0.362089,-0.0427 -0.202239,-0.0871 z m 140.469669,0 c 0.15985,-0.0443 0.38164,-0.0414 0.49287,0.006 0.11123,0.0479 -0.0196,0.0841 -0.29063,0.0806 -0.27109,-0.004 -0.36209,-0.0427 -0.20224,-0.0871 z M 85.747941,243.3068 c -0.204358,-0.27722 -0.198547,-0.28341 0.06203,-0.066 0.158131,0.13193 0.287511,0.26958 0.287511,0.30588 0,0.14385 -0.134914,0.0513 -0.34954,-0.23989 z M 237.739,242.67275 c 0,-0.0363 0.12938,-0.17394 0.28751,-0.30588 0.26058,-0.21741 0.26639,-0.21123 0.062,0.066 -0.21462,0.29115 -0.34954,0.38374 -0.34954,0.23989 z M 83.317488,237.74273 c 0.0079,-0.20362 0.04681,-0.24504 0.09926,-0.1056 0.04746,0.12617 0.04162,0.27693 -0.01297,0.33501 -0.05459,0.0581 -0.09342,-0.0452 -0.08629,-0.22941 z m -1.943043,-1.20895 c 0.0018,-0.38453 0.03547,-0.52126 0.07476,-0.30384 0.0393,0.21742 0.03781,0.53204 -0.0033,0.69915 -0.04112,0.16711 -0.07327,-0.0108 -0.07145,-0.39531 z m 158.197715,0.0874 c 0,-0.24033 0.0373,-0.33865 0.0829,-0.21848 0.0456,0.12017 0.0456,0.3168 0,0.43697 -0.0456,0.12016 -0.0829,0.0219 -0.0829,-0.21849 z m 2.02691,-72.62425 c 0,-39.22234 0.0188,-55.24176 0.0419,-35.59872 0.023,19.64304 0.023,51.73404 0,71.31334 -0.023,19.5793 -0.0419,3.50772 -0.0419,-35.71462 z M 52.212255,234.56745 c 5.353866,-0.0256 14.114737,-0.0256 19.468603,0 5.353866,0.0256 0.97343,0.0465 -9.734302,0.0465 -10.707731,0 -15.088167,-0.0209 -9.734301,-0.0465 z m 37.62287,3e-5 c 3.546653,-0.0263 9.350268,-0.0263 12.896925,0 3.54665,0.0263 0.64484,0.0478 -6.448464,0.0478 -7.093308,0 -9.995115,-0.0215 -6.448461,-0.0478 z m 28.476565,-7.31201 c 0.008,-0.20362 0.0468,-0.24503 0.0992,-0.1056 0.0475,0.12617 0.0416,0.27693 -0.013,0.33501 -0.0546,0.0581 -0.0934,-0.0452 -0.0863,-0.22941 z M 33.110216,207.51904 c -8e-6,-9.70945 0.01985,-13.70716 0.04413,-8.8838 0.02428,4.82336 0.02428,12.76746 1.4e-5,17.65355 -0.02427,4.88609 -0.04413,0.9397 -0.04414,-8.76975 z m 18.948015,14.47536 c 0.118598,-0.0505 0.2603,-0.0443 0.314893,0.0138 0.05459,0.0581 -0.04244,0.0994 -0.215633,0.0918 -0.191391,-0.008 -0.230321,-0.0498 -0.09926,-0.1056 z m 1.971504,0 c 0.118599,-0.0505 0.2603,-0.0443 0.314893,0.0138 0.05459,0.0581 -0.04244,0.0994 -0.215633,0.0918 -0.191391,-0.008 -0.230321,-0.0498 -0.09926,-0.1056 z m 15.309962,-0.99532 c 0,-0.0363 0.12938,-0.17394 0.287511,-0.30587 0.260576,-0.21742 0.266387,-0.21123 0.06203,0.066 -0.214626,0.29115 -0.34954,0.38374 -0.34954,0.23988 z m -16.470274,-3.37073 c 0.112951,-0.0485 0.297779,-0.0485 0.41073,0 0.112951,0.0485 0.02054,0.0882 -0.205365,0.0882 -0.225902,0 -0.318316,-0.0397 -0.205365,-0.0882 z m 22.836589,0 c 0.112951,-0.0485 0.297779,-0.0485 0.41073,0 0.112951,0.0485 0.02054,0.0882 -0.205365,0.0882 -0.225902,0 -0.318316,-0.0397 -0.205365,-0.0882 z m -15.43318,-3.14981 c 0.118598,-0.0505 0.2603,-0.0443 0.314893,0.0138 0.05459,0.0581 -0.04244,0.0994 -0.215634,0.0918 -0.191391,-0.008 -0.230321,-0.0498 -0.09926,-0.1056 z m 160.020418,-1.22352 c 0.11859,-0.0505 0.2603,-0.0443 0.31489,0.0138 0.0546,0.0581 -0.0424,0.0994 -0.21563,0.0918 -0.19139,-0.008 -0.23032,-0.0498 -0.0993,-0.1056 z m 3.64523,-1.51968 c 0,-0.0363 0.12938,-0.17394 0.28751,-0.30588 0.26057,-0.21741 0.26638,-0.21123 0.062,0.066 -0.21463,0.29115 -0.34954,0.38374 -0.34954,0.23988 z M 45.247088,209.26691 c -5.01e-4,-0.8652 0.02728,-1.24118 0.06174,-0.83551 0.03446,0.40566 0.03487,1.11355 9.1e-4,1.57309 -0.03396,0.45953 -0.06215,0.12762 -0.06265,-0.73758 z m 26.228405,-7.31967 c 0,-0.0363 0.12938,-0.17395 0.287511,-0.30588 0.260576,-0.21742 0.266387,-0.21123 0.06203,0.066 -0.214626,0.29115 -0.34954,0.38374 -0.34954,0.23989 z m 22.880789,-1.27865 c 0.15985,-0.0443 0.381645,-0.0414 0.492876,0.006 0.111231,0.0479 -0.01956,0.0841 -0.290638,0.0806 -0.271082,-0.004 -0.362089,-0.0427 -0.202238,-0.0871 z m 10.021808,0 c 0.15985,-0.0443 0.38165,-0.0414 0.49288,0.006 0.11123,0.0479 -0.0196,0.0841 -0.29064,0.0806 -0.27108,-0.004 -0.36209,-0.0427 -0.20224,-0.0871 z m -36.024145,-1.69274 c 0,-0.0363 0.12938,-0.17394 0.287511,-0.30588 0.260576,-0.21742 0.266387,-0.21123 0.06203,0.066 -0.214626,0.29115 -0.34954,0.38374 -0.34954,0.23989 z m 49.957745,-11.04759 c 0.008,-0.20362 0.0468,-0.24504 0.0992,-0.1056 0.0475,0.12617 0.0416,0.27693 -0.013,0.33501 -0.0546,0.0581 -0.0934,-0.0452 -0.0863,-0.22941 z m -2.00544,-4.92318 c -0.20435,-0.27723 -0.19854,-0.28341 0.062,-0.066 0.15813,0.13194 0.28751,0.26959 0.28751,0.30588 0,0.14386 -0.13491,0.0513 -0.34954,-0.23988 z m -75.180579,-2.43707 c 0.159851,-0.0443 0.381645,-0.0414 0.492876,0.006 0.111231,0.0479 -0.01956,0.0841 -0.290638,0.0806 -0.271081,-0.004 -0.362089,-0.0427 -0.202238,-0.0871 z m 69.002639,0 c 0.15985,-0.0443 0.38165,-0.0414 0.49288,0.006 0.11123,0.0479 -0.0196,0.0841 -0.29064,0.0806 -0.27108,-0.004 -0.36209,-0.0427 -0.20224,-0.0871 z m -9.91415,-11.37116 -0.398296,-0.48066 0.451806,0.42374 c 0.42227,0.39605 0.52714,0.53759 0.39829,0.53759 -0.0294,0 -0.23274,-0.2163 -0.4518,-0.48067 z m 123.64217,0.1311 c 0.16355,-0.19227 0.33433,-0.34958 0.37951,-0.34958 0.0452,0 -0.0517,0.15731 -0.21522,0.34958 -0.16355,0.19226 -0.33433,0.34957 -0.37951,0.34957 -0.0452,0 0.0517,-0.15731 0.21522,-0.34957 z m 1.73804,-46.24589 c 0.008,-0.20362 0.0468,-0.24504 0.0993,-0.1056 0.0474,0.12617 0.0416,0.27693 -0.013,0.33501 -0.0546,0.0581 -0.0934,-0.0452 -0.0863,-0.22941 z m -1.84114,-4.7484 c -0.20436,-0.27722 -0.19855,-0.2834 0.062,-0.066 0.15813,0.13194 0.28751,0.26958 0.28751,0.30588 0,0.14385 -0.13492,0.0513 -0.34954,-0.23989 z m -0.30763,-25.737474 -16.18276,-0.08997 16.22383,-0.04241 c 10.73294,-0.02806 16.22384,0.01675 16.22384,0.132376 0,0.09613 -0.0185,0.155703 -0.0411,0.132376 -0.0226,-0.02333 -7.32331,-0.08289 -16.22383,-0.132376 z m 17.26479,-0.765881 -0.3966,-0.545026 0.47003,0.475369 c 0.25852,0.261453 0.43699,0.506715 0.3966,0.545026 -0.0404,0.03831 -0.2519,-0.175605 -0.47003,-0.475369 z m -37.06198,0.291671 c -0.50316,-0.128759 -0.65782,-0.368092 -0.17432,-0.269759 0.23409,0.04761 0.46585,0.155822 0.51503,0.240476 0.0492,0.08465 0.0666,0.144794 0.0386,0.133642 -0.0279,-0.01115 -0.19864,-0.05811 -0.37936,-0.104359 z m -1.81688,-0.846339 c -0.30625,-0.261027 -0.30423,-0.264254 0.0507,-0.08124 0.20331,0.104818 0.36966,0.227139 0.36966,0.271823 0,0.133751 -0.0852,0.09513 -0.4204,-0.190579 z m 38.02231,-0.38363 c -0.20435,-0.277223 -0.19854,-0.283405 0.062,-0.06599 0.27367,0.228337 0.3607,0.37187 0.22548,0.37187 -0.0341,0 -0.16349,-0.137645 -0.28751,-0.305878 z m -39.17829,-0.436969 -0.31298,-0.393272 0.36966,0.332968 c 0.34739,0.312908 0.44445,0.453576 0.31297,0.453576 -0.0312,0 -0.19752,-0.176972 -0.36965,-0.393272 z m 38.22709,-0.702301 -0.56143,-0.739697 0.68465,0.690926 c 0.7109,0.71742 0.76726,0.796881 0.56143,0.791618 -0.0678,-0.0017 -0.37586,-0.336014 -0.68465,-0.742847 z m -39.20757,-0.171637 -0.48254,-0.56806 0.53395,0.513367 c 0.49771,0.47853 0.60946,0.622753 0.48254,0.622753 -0.0283,0 -0.26855,-0.255627 -0.53395,-0.56806 z m -0.9616,-1.117145 c -0.0865,-0.239891 -0.0625,-0.250705 0.14671,-0.06599 0.28509,0.251716 0.31476,0.352896 0.10349,0.352896 -0.0807,0 -0.19328,-0.129107 -0.2502,-0.286904 z m 38.04082,-1.127087 c -0.39505,-0.480638 -0.69077,-0.899626 -0.65717,-0.931086 0.0336,-0.03146 0.41916,0.365331 0.85678,0.881757 0.43762,0.516426 0.73335,0.935415 0.65717,0.931087 -0.0762,-0.0043 -0.46173,-0.40112 -0.85678,-0.881758 z m -38.46537,0.365265 c -0.0967,-0.192266 -0.13888,-0.349575 -0.0937,-0.349575 0.0452,0 0.16128,0.157309 0.25799,0.349575 0.0967,0.192266 0.13889,0.349575 0.0937,0.349575 -0.0452,0 -0.16128,-0.157309 -0.258,-0.349575 z m -0.8032,-1.767297 c -0.10122,-0.308895 -0.15528,-0.592216 -0.12014,-0.629601 0.0351,-0.03739 0.1467,0.18476 0.24792,0.493655 0.10122,0.308896 0.15528,0.592216 0.12014,0.629602 -0.0351,0.03739 -0.14671,-0.18476 -0.24792,-0.493656 z M 235.11033,85.3425 c -0.39907,-0.432599 -0.68861,-0.786544 -0.64343,-0.786544 0.0452,0 0.40865,0.353945 0.80772,0.786544 0.39907,0.4326 0.68862,0.786545 0.64344,0.786545 -0.0452,0 -0.40866,-0.353945 -0.80773,-0.786545 z m -1.0679,-1.136119 c -0.0558,-0.09613 -0.0276,-0.174788 0.0628,-0.174788 0.0904,0 0.20998,0.07865 0.26583,0.174788 0.0558,0.09613 0.0276,0.174788 -0.0628,0.174788 -0.0904,0 -0.20998,-0.07865 -0.26583,-0.174788 z m -0.58745,-0.830241 -0.3983,-0.480666 0.4518,0.42374 c 0.2485,0.233057 0.45181,0.449357 0.45181,0.480666 0,0.137081 -0.13305,0.02551 -0.50531,-0.42374 z m -36.51775,-0.607479 c -0.0572,-0.507052 -0.0877,-9.770535 -0.0677,-20.585518 l 0.0364,-19.663606 0.0854,20.537544 c 0.047,11.295649 0.0774,20.559132 0.0677,20.585519 -0.01,0.02639 -0.0645,-0.366886 -0.12179,-0.873939 z m 35.53409,-0.441247 c -0.219,-0.264366 -0.57938,-0.716629 -0.80085,-1.005029 l -0.40266,-0.524362 0.53979,0.524362 c 0.5134,0.498723 1.26116,1.485695 1.1256,1.485695 -0.035,0 -0.24288,-0.2163 -0.46188,-0.480666 z m -68.81504,-1.718745 c 0.008,-0.203617 0.0468,-0.245034 0.0993,-0.1056 0.0475,0.126174 0.0416,0.276929 -0.013,0.335009 -0.0546,0.05808 -0.0934,-0.04515 -0.0863,-0.229409 z m 0,-0.873938 c 0.008,-0.203617 0.0468,-0.245034 0.0993,-0.1056 0.0475,0.126174 0.0416,0.276929 -0.013,0.335009 -0.0546,0.05808 -0.0934,-0.04515 -0.0863,-0.229409 z m 66.04,-0.655683 -0.56744,-0.728052 0.69066,0.690926 c 0.37986,0.38001 0.69066,0.714291 0.69066,0.742848 0,0.200908 -0.33086,-0.08598 -0.81388,-0.705722 z m -0.82904,-1.000549 c 0,-0.101806 0.0739,-0.136492 0.16429,-0.07708 0.0904,0.05941 0.16429,0.14271 0.16429,0.185103 0,0.04239 -0.0739,0.07708 -0.16429,0.07708 -0.0904,0 -0.16429,-0.0833 -0.16429,-0.185103 z m -0.91425,-1.082107 c -0.96915,-1.100698 -1.45281,-1.704179 -1.36582,-1.704179 0.0425,0 0.54064,0.550581 1.10696,1.223513 1.12689,1.339052 1.30365,1.667258 0.25886,0.480666 z m -1.89967,-2.184845 c -0.20436,-0.277223 -0.19855,-0.283405 0.062,-0.06599 0.27367,0.228337 0.3607,0.37187 0.22549,0.37187 -0.0341,0 -0.1635,-0.137645 -0.28751,-0.305878 z m -0.88265,-1.054182 c -0.0904,-0.07216 -0.38562,-0.405234 -0.65613,-0.740171 -0.46482,-0.575539 -0.45355,-0.57104 0.20537,0.08195 0.63272,0.627032 0.77591,0.799898 0.65612,0.792092 -0.0226,-0.0015 -0.115,-0.06171 -0.20536,-0.133871 z m -1.86493,-2.095153 c -0.21247,-0.262629 -0.58109,-0.713471 -0.81915,-1.00187 -0.23807,-0.2884 -0.009,-0.09445 0.50952,0.430998 0.5183,0.525448 0.94237,0.977711 0.94237,1.005028 0,0.180374 -0.30476,-0.02874 -0.63274,-0.434156 z m -2.33013,-2.759135 c -0.4939,-0.533897 -0.7871,-0.917834 -0.65156,-0.853193 0.24049,0.114688 1.75811,1.823913 1.61946,1.823913 -0.0385,0 -0.47401,-0.436824 -0.9679,-0.97072 z m -1.32116,-1.607397 -0.3983,-0.480666 0.45181,0.42374 c 0.24849,0.233057 0.4518,0.449357 0.4518,0.480666 0,0.137082 -0.13304,0.02551 -0.50531,-0.42374 z m -0.82998,-0.873938 c -0.20436,-0.277223 -0.19855,-0.283405 0.062,-0.06599 0.27367,0.228337 0.3607,0.37187 0.22548,0.37187 -0.0341,0 -0.1635,-0.137645 -0.28751,-0.305878 z m -0.95121,-1.13927 -0.56143,-0.739697 0.68465,0.690927 c 0.7109,0.717419 0.76726,0.79688 0.56143,0.791617 -0.0678,-0.0017 -0.37586,-0.336014 -0.68465,-0.742847 z m -1.9715,-2.272239 -0.56143,-0.739697 0.68465,0.690927 c 0.7109,0.71742 0.76725,0.79688 0.56143,0.791617 -0.0678,-0.0017 -0.37586,-0.336014 -0.68465,-0.742847 z m -0.83505,-1.012193 c 0,-0.101807 0.0739,-0.136492 0.16429,-0.07708 0.0904,0.05941 0.16429,0.14271 0.16429,0.185103 0,0.04239 -0.0739,0.07708 -0.16429,0.07708 -0.0904,0 -0.16429,-0.0833 -0.16429,-0.185103 z m -0.98576,-1.125804 c -0.39907,-0.4326 -0.68861,-0.786545 -0.64343,-0.786545 0.0452,0 0.40866,0.353945 0.80773,0.786545 0.39907,0.432599 0.68861,0.786544 0.64343,0.786544 -0.0452,0 -0.40866,-0.353945 -0.80773,-0.786544 z m -1.46503,-1.70733 -0.56143,-0.739697 0.68465,0.690926 c 0.7109,0.71742 0.76725,0.796881 0.56143,0.791618 -0.0678,-0.0017 -0.37586,-0.336014 -0.68465,-0.742847 z m -1.17398,-1.307757 c -0.219,-0.264366 -0.57938,-0.716629 -0.80084,-1.005028 l -0.40267,-0.524363 0.53979,0.524363 c 0.5134,0.498722 1.26116,1.485694 1.12561,1.485694 -0.035,0 -0.24289,-0.216299 -0.46189,-0.480666 z m -2.77504,-3.248365 -0.56743,-0.728053 0.69065,0.690927 c 0.37986,0.380009 0.69066,0.71429 0.69066,0.742847 0,0.200908 -0.33085,-0.08598 -0.81388,-0.705721 z m -0.82904,-1.00055 c 0,-0.101806 0.0739,-0.136491 0.16429,-0.07708 0.0904,0.05941 0.16429,0.14271 0.16429,0.185103 0,0.04239 -0.0739,0.07708 -0.16429,0.07708 -0.0904,0 -0.16429,-0.0833 -0.16429,-0.185104 z m -0.91424,-1.082107 c -0.96916,-1.100698 -1.45282,-1.704179 -1.36583,-1.704179 0.0425,0 0.54065,0.550581 1.10696,1.223513 1.12689,1.339053 1.30365,1.667258 0.25887,0.480666 z M 81.374445,51.08413 c 0.0018,-0.384533 0.03547,-0.521261 0.07476,-0.303841 0.0393,0.217421 0.03781,0.532038 -0.0033,0.699151 -0.04112,0.167112 -0.07327,-0.01078 -0.07145,-0.39531 z M 205.02394,50.341282 c -0.20436,-0.277223 -0.19855,-0.283405 0.062,-0.06599 0.15813,0.131938 0.28751,0.269583 0.28751,0.305879 0,0.143856 -0.13492,0.05127 -0.34954,-0.239887 z M 83.317488,49.846051 c 0.0079,-0.203618 0.04681,-0.245035 0.09926,-0.105601 0.04746,0.126175 0.04162,0.276929 -0.01297,0.335009 -0.05459,0.05808 -0.09342,-0.04515 -0.08629,-0.229408 z M 204.14129,49.2871 c -0.0904,-0.07216 -0.38562,-0.405234 -0.65612,-0.740171 -0.46483,-0.575539 -0.45355,-0.57104 0.20536,0.08195 0.63272,0.627032 0.77591,0.799898 0.65612,0.792092 -0.0226,-0.0015 -0.115,-0.06171 -0.20536,-0.133871 z m -1.86551,-2.095153 c -1.00163,-1.236264 -1.02868,-1.294189 -0.22604,-0.484078 0.47265,0.477052 0.85936,0.889988 0.85936,0.917635 0,0.180831 -0.30434,-0.02751 -0.63332,-0.433557 z m -2.32955,-2.759135 c -0.4939,-0.533897 -0.7871,-0.917833 -0.65156,-0.853193 0.24049,0.114688 1.75811,1.823913 1.61946,1.823913 -0.0385,0 -0.474,-0.436824 -0.9679,-0.97072 z m -114.341625,0.03079 c 0,-0.0363 0.12938,-0.17394 0.287511,-0.305878 0.260577,-0.217413 0.266388,-0.211231 0.06203,0.06599 -0.214626,0.291152 -0.349541,0.383743 -0.349541,0.239886 z m 113.020465,-1.638187 -0.39829,-0.480666 0.4518,0.42374 c 0.24849,0.233057 0.4518,0.449357 0.4518,0.480666 0,0.137082 -0.13304,0.02551 -0.50531,-0.42374 z M 91.070441,42.485805 c 0.159851,-0.04432 0.381645,-0.0414 0.492876,0.0065 0.111231,0.04788 -0.01956,0.08414 -0.290637,0.08058 -0.271082,-0.0036 -0.362089,-0.04274 -0.202239,-0.08705 z M 197.79509,41.951477 c -0.20436,-0.277223 -0.19855,-0.283405 0.062,-0.06599 0.27367,0.228337 0.3607,0.371871 0.22548,0.371871 -0.0341,0 -0.1635,-0.137646 -0.28751,-0.305879 z m -0.72316,-0.873938 -0.28902,-0.480666 0.43442,0.42374 c 0.46971,0.45816 0.51242,0.537592 0.28903,0.537592 -0.08,0 -0.27546,-0.2163 -0.43443,-0.480666 z m -78.25257,-0.699146 c 14.24706,-0.02463 37.60939,-0.02463 51.91627,-1e-6 14.30689,0.02463 2.65019,0.04478 -25.90376,0.04478 -28.55395,10e-7 -40.25958,-0.02015 -26.01251,-0.04478 z"
         id="path4" /><path
         style="fill:#606060;fill-opacity:1"
         d="m 89.506541,246.99267 c 0.11295,-0.0485 0.297779,-0.0485 0.41073,0 0.11295,0.0485 0.02054,0.0882 -0.205365,0.0882 -0.225902,0 -0.318316,-0.0397 -0.205365,-0.0882 z m 143.591209,0 c 0.11296,-0.0485 0.29778,-0.0485 0.41073,0 0.11296,0.0485 0.0205,0.0882 -0.20536,0.0882 -0.2259,0 -0.31832,-0.0397 -0.20537,-0.0882 z m -142.595189,-1.9263 c 0.118598,-0.0505 0.2603,-0.0443 0.314893,0.0138 0.05459,0.0581 -0.04244,0.0994 -0.215633,0.0918 -0.191391,-0.008 -0.230321,-0.0498 -0.09926,-0.1056 z m 141.783999,0 c 0.1186,-0.0505 0.2603,-0.0443 0.3149,0.0138 0.0546,0.0581 -0.0425,0.0994 -0.21564,0.0918 -0.19139,-0.008 -0.23032,-0.0498 -0.0993,-0.1056 z m 7.27263,-7.84801 c 0.008,-0.20361 0.0468,-0.24503 0.0993,-0.1056 0.0475,0.12618 0.0416,0.27693 -0.013,0.33501 -0.0546,0.0581 -0.0934,-0.0451 -0.0863,-0.22941 z M 81.374445,235.31027 c 0.0018,-0.38454 0.03547,-0.52126 0.07476,-0.30384 0.0393,0.21742 0.03781,0.53203 -0.0033,0.69915 -0.04112,0.16711 -0.07327,-0.0108 -0.07145,-0.39531 z m -41.473822,-0.90595 c 0.118598,-0.0505 0.2603,-0.0443 0.314893,0.0138 0.05459,0.0581 -0.04244,0.0994 -0.215634,0.0918 -0.19139,-0.008 -0.23032,-0.0498 -0.09926,-0.1056 z m 71.631317,0 c 0.1186,-0.0505 0.2603,-0.0443 0.31489,0.0138 0.0546,0.0581 -0.0424,0.0994 -0.21563,0.0918 -0.19139,-0.008 -0.23032,-0.0498 -0.0993,-0.1056 z m 6.79272,-7.74604 c 0,-0.24033 0.0373,-0.33865 0.0829,-0.21848 0.0456,0.12016 0.0456,0.3168 0,0.43696 -0.0456,0.12017 -0.0829,0.0219 -0.0829,-0.21848 z M 51.565355,221.9944 c 0.118598,-0.0505 0.2603,-0.0443 0.314893,0.0138 0.05459,0.0581 -0.04244,0.0994 -0.215633,0.0918 -0.191391,-0.008 -0.230321,-0.0498 -0.09926,-0.1056 z m 31.410578,-2.21883 c 0,-0.0363 0.12938,-0.17394 0.287511,-0.30588 0.260577,-0.21741 0.266388,-0.21123 0.06203,0.066 -0.214627,0.29115 -0.349541,0.38374 -0.349541,0.23988 z M 61.45368,218.88023 c 0.212224,-0.24033 0.422827,-0.43697 0.468007,-0.43697 0.04518,0 -0.09149,0.19664 -0.303715,0.43697 -0.212223,0.24033 -0.422826,0.43697 -0.468006,0.43697 -0.04518,0 0.09149,-0.19664 0.303714,-0.43697 z m 4.660181,-1.74787 c 4.28e-4,-0.96134 0.02802,-1.33231 0.06131,-0.82439 0.03329,0.50793 0.03294,1.29447 -7.77e-4,1.74788 -0.03372,0.45341 -0.06096,0.0378 -0.06053,-0.92349 z m -7.781729,-1.3769 c 0,-0.0363 0.12938,-0.17394 0.287511,-0.30588 0.260576,-0.21742 0.266388,-0.21123 0.06203,0.066 -0.214627,0.29115 -0.349541,0.38374 -0.349541,0.23989 z m 161.047238,-2.50152 c 0.15813,-0.044 0.41689,-0.044 0.57502,0 0.15814,0.044 0.0288,0.0799 -0.28751,0.0799 -0.31626,0 -0.44564,-0.036 -0.28751,-0.0799 z m 6.215,-5.74947 c 0.008,-0.20362 0.0468,-0.24503 0.0993,-0.1056 0.0474,0.12618 0.0416,0.27693 -0.013,0.33501 -0.0546,0.0581 -0.0934,-0.0452 -0.0863,-0.22941 z M 80.819181,204.67874 c -0.204358,-0.27722 -0.198547,-0.28341 0.06203,-0.066 0.158131,0.13193 0.287511,0.26958 0.287511,0.30587 0,0.14386 -0.134914,0.0513 -0.34954,-0.23988 z m -1.555428,-3.23357 -0.312974,-0.39327 0.369657,0.33296 c 0.203311,0.18314 0.369657,0.36011 0.369657,0.39328 0,0.13987 -0.132221,0.0366 -0.42634,-0.33297 z m 9.342308,-0.77658 c 0.159851,-0.0443 0.381645,-0.0414 0.492876,0.006 0.111231,0.0479 -0.01956,0.0841 -0.290637,0.0806 -0.271082,-0.004 -0.36209,-0.0427 -0.202239,-0.0871 z m 6.486408,0.005 c 0.112951,-0.0485 0.297779,-0.0485 0.41073,0 0.112951,0.0485 0.02054,0.0882 -0.205365,0.0882 -0.225902,0 -0.318316,-0.0397 -0.205365,-0.0882 z m 8.543181,0 c 0.11295,-0.0485 0.29778,-0.0485 0.41073,0 0.11295,0.0485 0.0205,0.0882 -0.20536,0.0882 -0.2259,0 -0.31832,-0.0397 -0.20537,-0.0882 z m 6.40739,0 c 0.11295,-0.0485 0.29778,-0.0485 0.41073,0 0.11295,0.0485 0.0205,0.0882 -0.20536,0.0882 -0.22591,0 -0.31832,-0.0397 -0.20537,-0.0882 z m -65.675728,-1.69811 c 0,-0.0363 0.12938,-0.17394 0.287511,-0.30588 0.260576,-0.21742 0.266387,-0.21123 0.06203,0.066 -0.214626,0.29115 -0.34954,0.38374 -0.34954,0.23989 z m 7.516359,-3.37073 c 0.112951,-0.0485 0.297779,-0.0485 0.41073,0 0.112951,0.0485 0.02054,0.0882 -0.205365,0.0882 -0.225902,0 -0.318316,-0.0397 -0.205365,-0.0882 z m 23.493757,0 c 0.112951,-0.0485 0.297779,-0.0485 0.41073,0 0.112951,0.0485 0.02054,0.0882 -0.205365,0.0882 -0.225902,0 -0.318316,-0.0397 -0.205365,-0.0882 z m 42.947232,-7.05054 c 0,-0.24033 0.0373,-0.33865 0.0829,-0.21848 0.0456,0.12016 0.0456,0.3168 0,0.43697 -0.0456,0.12016 -0.0829,0.0218 -0.0829,-0.21849 z M 35.495543,182.7206 c 0,-0.0363 0.12938,-0.17394 0.287511,-0.30588 0.260576,-0.21741 0.266388,-0.21123 0.06203,0.066 -0.214627,0.29115 -0.349541,0.38375 -0.349541,0.23989 z m 16.154401,-2.16253 c 5.496398,-0.0255 14.442098,-0.0255 19.879333,1e-5 5.437235,0.0256 0.940182,0.0464 -9.993451,0.0464 -10.933633,-1e-5 -15.38228,-0.0209 -9.885882,-0.0465 z m 38.443873,2e-5 c 3.688935,-0.0262 9.677379,-0.0262 13.307653,3e-5 3.63027,0.0262 0.61205,0.0477 -6.707154,0.0477 -7.319209,-1e-5 -10.289433,-0.0215 -6.600499,-0.0477 z M 81.41428,116.01773 c 0,-35.425083 0.01888,-49.91716 0.04195,-32.204621 0.02307,17.712541 0.02307,46.696691 0,64.409231 -0.02307,17.71254 -0.04195,3.22046 -0.04195,-32.20461 z m 22.23164,54.7639 c 0.1186,-0.0505 0.2603,-0.0443 0.31489,0.0138 0.0546,0.0581 -0.0424,0.0994 -0.21563,0.0918 -0.19139,-0.008 -0.23032,-0.0498 -0.0993,-0.1056 z m 116.81162,0 c 0.1186,-0.0505 0.2603,-0.0443 0.31489,0.0138 0.0546,0.0581 -0.0424,0.0994 -0.21563,0.0918 -0.19139,-0.008 -0.23032,-0.0498 -0.0993,-0.1056 z m 5.13683,-5.75055 c 0.008,-0.20361 0.0468,-0.24503 0.0993,-0.1056 0.0474,0.12618 0.0416,0.27693 -0.013,0.33501 -0.0546,0.0581 -0.0934,-0.0452 -0.0863,-0.22941 z m -1.66833,-4.04924 -0.39829,-0.48067 0.4518,0.42374 c 0.24849,0.23306 0.4518,0.44936 0.4518,0.48067 0,0.13708 -0.13304,0.0255 -0.50531,-0.42374 z m -123.6173,-0.0437 c 0.16355,-0.19227 0.33433,-0.34958 0.37951,-0.34958 0.0452,0 -0.0517,0.15731 -0.21522,0.34958 -0.16355,0.19227 -0.33433,0.34958 -0.37951,0.34958 -0.0452,0 0.0517,-0.15731 0.21522,-0.34958 z m 3.0086,-1.5177 c 0.1186,-0.0505 0.2603,-0.0443 0.31489,0.0138 0.0546,0.0581 -0.0424,0.0994 -0.21563,0.0918 -0.19139,-0.008 -0.23032,-0.0498 -0.0993,-0.1056 z m 117.46878,0 c 0.1186,-0.0505 0.2603,-0.0443 0.3149,0.0138 0.0546,0.0581 -0.0425,0.0994 -0.21564,0.0918 -0.19139,-0.008 -0.23032,-0.0498 -0.0993,-0.1056 z M 100.20564,126.72347 c -0.20436,-0.27723 -0.19855,-0.28341 0.062,-0.066 0.15813,0.13194 0.28751,0.26959 0.28751,0.30588 0,0.14386 -0.13492,0.0513 -0.34954,-0.23988 z m 123.73284,0.0651 c 0,-0.0363 0.12938,-0.17394 0.28751,-0.30587 0.26057,-0.21742 0.26638,-0.21123 0.062,0.066 -0.21463,0.29115 -0.34954,0.38374 -0.34954,0.23988 z m -120.12827,-9.84151 c 0.1186,-0.0505 0.2603,-0.0443 0.3149,0.0138 0.0546,0.0581 -0.0425,0.0994 -0.21564,0.0918 -0.19139,-0.008 -0.23032,-0.0498 -0.0993,-0.1056 z m 116.48304,0 c 0.11859,-0.0505 0.2603,-0.0443 0.31489,0.0138 0.0546,0.0581 -0.0424,0.0994 -0.21563,0.0918 -0.19139,-0.008 -0.23032,-0.0498 -0.0993,-0.1056 z m 19.41716,-24.388612 c 5e-5,-0.06883 -7.97316,-0.147482 -17.71826,-0.174788 -12.31516,-0.03451 -17.78866,-0.10694 -17.9489,-0.237528 -0.1268,-0.103335 -0.53984,-0.281898 -0.91787,-0.396808 -1.53023,-0.465146 -3.38798,-1.99048 -4.40018,-3.612845 -0.98509,-1.578912 -1.39618,-2.901069 -1.57519,-5.066207 -0.0879,-1.062902 -0.17655,-10.917737 -0.19827,-22.038116 l -0.0393,-20.115451 1.0679,1.229536 c 2.16207,2.489327 3.39719,3.923853 4.60017,5.342887 0.67771,0.799413 1.62307,1.888095 2.1008,2.419293 0.47773,0.531198 1.05922,1.206834 1.29221,1.501413 0.42316,0.535026 2.51192,2.981526 3.7537,4.396597 0.36144,0.411882 1.21165,1.401012 1.88935,2.198066 0.67771,0.797054 1.68713,1.965001 2.24317,2.595438 0.55603,0.630437 1.29535,1.495106 1.64292,1.921488 0.34757,0.426382 0.92767,1.107357 1.28911,1.513278 0.36145,0.405921 1.24862,1.430693 1.97151,2.277271 0.72288,0.846579 1.79489,2.096683 2.38223,2.778011 0.58735,0.681327 1.65935,1.932432 2.38224,2.780233 0.72288,0.847801 1.7052,1.976342 2.18293,2.50787 0.47773,0.531528 1.05923,1.207434 1.29222,1.502013 0.42316,0.535026 2.51192,2.981526 3.75369,4.396597 0.36145,0.411882 1.21166,1.401012 1.88936,2.198066 0.67771,0.797054 1.6838,1.965001 2.23577,2.595438 0.55196,0.630436 1.32906,1.539521 1.72688,2.020186 0.39782,0.480666 0.98125,1.160951 1.29651,1.511743 0.31527,0.350792 1.12769,1.285828 1.8054,2.077857 0.6777,0.792028 1.32286,1.539721 1.43369,1.661539 0.16163,0.177655 0.0397,0.233417 -0.61619,0.281776 -0.44974,0.03316 -0.81766,0.004 -0.8176,-0.06485 z M 99.877054,83.900503 c -0.204358,-0.277223 -0.198547,-0.283405 0.06203,-0.06599 0.158126,0.131937 0.287506,0.269582 0.287506,0.305878 0,0.143856 -0.13491,0.05127 -0.349535,-0.239886 z m 58.478106,-9.42684 c 0.1186,-0.05049 0.2603,-0.04428 0.31489,0.0138 0.0546,0.05808 -0.0424,0.09939 -0.21563,0.0918 -0.19139,-0.0084 -0.23032,-0.0498 -0.0993,-0.105601 z M 90.502561,42.487531 c 0.118598,-0.05049 0.2603,-0.04428 0.314893,0.0138 0.05459,0.05808 -0.04244,0.09939 -0.215633,0.0918 -0.191391,-0.0084 -0.230321,-0.0498 -0.09926,-0.1056 z m -0.99602,-1.919022 c 0.11295,-0.04849 0.297779,-0.04849 0.41073,0 0.11295,0.04849 0.02054,0.08816 -0.205365,0.08816 -0.225902,0 -0.318316,-0.03967 -0.205365,-0.08816 z"
         id="path3" /><path
         style="fill:#494949;fill-opacity:1"
         d="m 90.245855,246.98794 c 0.158131,-0.044 0.416891,-0.044 0.575022,0 0.158131,0.044 0.02875,0.0799 -0.287511,0.0799 -0.316263,0 -0.445642,-0.036 -0.287511,-0.0799 z m 141.948295,0 c 0.15813,-0.044 0.41689,-0.044 0.57502,0 0.15813,0.044 0.0288,0.0799 -0.28751,0.0799 -0.31626,0 -0.44564,-0.036 -0.28751,-0.0799 z m 5.87344,-1.86817 c 0,-0.0363 0.12938,-0.17394 0.28751,-0.30587 0.26058,-0.21742 0.26639,-0.21123 0.062,0.066 -0.21463,0.29115 -0.34954,0.38374 -0.34954,0.23988 z m 0.98575,-1.04872 c 0,-0.0363 0.12938,-0.17394 0.28751,-0.30588 0.26058,-0.21741 0.26639,-0.21123 0.062,0.066 -0.21463,0.29115 -0.34954,0.38374 -0.34954,0.23989 z M 81.510276,238.0923 c 0.0079,-0.20362 0.04681,-0.24503 0.09926,-0.1056 0.04746,0.12618 0.04162,0.27693 -0.01297,0.33501 -0.05459,0.0581 -0.09342,-0.0452 -0.08629,-0.22941 z m -41.0449,-3.68906 c 0.158131,-0.044 0.416891,-0.044 0.575022,0 0.158132,0.044 0.02875,0.0799 -0.287511,0.0799 -0.316262,0 -0.445642,-0.036 -0.287511,-0.0799 z m 70.152684,0 c 0.15813,-0.044 0.41689,-0.044 0.57503,0 0.15813,0.044 0.0288,0.0799 -0.28752,0.0799 -0.31626,0 -0.44564,-0.036 -0.28751,-0.0799 z m 5.54486,-2.23915 c 0.21222,-0.24033 0.42283,-0.43697 0.46801,-0.43697 0.0452,0 -0.0915,0.19664 -0.30372,0.43697 -0.21222,0.24033 -0.42283,0.43697 -0.46801,0.43697 -0.0452,0 0.0915,-0.19664 0.30372,-0.43697 z m 2.18503,-6.72932 c 0,-0.52874 0.0308,-0.74504 0.0684,-0.48067 0.0376,0.26437 0.0376,0.69697 0,0.96133 -0.0376,0.26437 -0.0684,0.0481 -0.0684,-0.48066 z m -57.71573,-5.6592 c 0,-0.0363 0.12938,-0.17394 0.287511,-0.30588 0.260577,-0.21741 0.266388,-0.21123 0.06203,0.066 -0.214626,0.29115 -0.349541,0.38374 -0.349541,0.23988 z m -16.614449,-1.28861 c -0.204358,-0.27722 -0.198547,-0.28341 0.06203,-0.066 0.273669,0.22833 0.360699,0.37187 0.225481,0.37187 -0.03412,0 -0.163496,-0.13765 -0.287511,-0.30588 z m 10.011964,-1.03704 c 0.118599,-0.0505 0.2603,-0.0443 0.314893,0.0138 0.05459,0.0581 -0.04244,0.0994 -0.215633,0.0918 -0.191391,-0.008 -0.230321,-0.0498 -0.09926,-0.10561 z m 16.767633,-1.75956 c -0.204358,-0.27723 -0.198547,-0.28341 0.06203,-0.066 0.273669,0.22833 0.360699,0.37187 0.225481,0.37187 -0.03412,0 -0.163496,-0.13765 -0.287511,-0.30588 z m -23.493757,-0.17479 c -0.204358,-0.27722 -0.198547,-0.28341 0.06203,-0.066 0.273669,0.22834 0.360699,0.37187 0.225481,0.37187 -0.03412,0 -0.163496,-0.13765 -0.287511,-0.30588 z m 18.763216,-0.32044 c 0.0079,-0.20362 0.04681,-0.24504 0.09926,-0.1056 0.04746,0.12617 0.04162,0.27692 -0.01297,0.335 -0.05459,0.0581 -0.09342,-0.0452 -0.08629,-0.2294 z m -7.241819,0.036 c 0,-0.0363 0.12938,-0.17394 0.287511,-0.30587 0.260576,-0.21742 0.266388,-0.21124 0.06203,0.066 -0.214627,0.29115 -0.349541,0.38374 -0.349541,0.23988 z m 26.483042,-0.72055 c 0.0033,-0.2884 0.04017,-0.38522 0.08182,-0.21516 0.04165,0.17007 0.03892,0.40603 -0.0061,0.52437 -0.045,0.11833 -0.07908,-0.0208 -0.07574,-0.30921 z m 58.41485,-1.2672 c 13.84777,-0.0246 36.50774,-0.0246 50.3555,0 13.84777,0.0246 2.51778,0.0448 -25.17775,0.0448 -27.69552,0 -39.02551,-0.0202 -25.17775,-0.0448 z m -98.356866,-2.06833 c 0.0079,-0.20362 0.04681,-0.24503 0.09926,-0.1056 0.04746,0.12618 0.04162,0.27693 -0.01297,0.33501 -0.05459,0.0581 -0.09342,-0.0451 -0.08629,-0.22941 z m 38.081819,-1.60222 c -0.204358,-0.27722 -0.198547,-0.2834 0.06203,-0.066 0.158131,0.13194 0.287511,0.26958 0.287511,0.30588 0,0.14385 -0.134914,0.0513 -0.34954,-0.23989 z m -38.081819,-2.59268 c 0.0079,-0.20362 0.04681,-0.24504 0.09926,-0.1056 0.04746,0.12617 0.04162,0.27693 -0.01297,0.33501 -0.05459,0.0581 -0.09342,-0.0452 -0.08629,-0.22941 z m 26.504579,-2.03919 -0.312974,-0.39327 0.369657,0.33297 c 0.347386,0.3129 0.444449,0.45357 0.312974,0.45357 -0.03118,0 -0.197521,-0.17697 -0.369657,-0.39327 z m -19.901669,-4.79669 c 0.159851,-0.0443 0.381645,-0.0414 0.492876,0.006 0.111231,0.0479 -0.01956,0.0841 -0.290638,0.0806 -0.271082,-0.004 -0.362089,-0.0427 -0.202238,-0.0871 z m 23.329465,0 c 0.159851,-0.0443 0.381645,-0.0414 0.492876,0.006 0.111231,0.0479 -0.01956,0.0841 -0.290638,0.0806 -0.271082,-0.004 -0.362089,-0.0427 -0.202238,-0.0871 z M 58.16784,197.05318 c 0,-0.0363 0.12938,-0.17394 0.287511,-0.30588 0.260576,-0.21741 0.266388,-0.21123 0.06203,0.066 -0.214627,0.29115 -0.349541,0.38374 -0.349541,0.23988 z m 17.877024,-1.45171 c 0.118599,-0.0505 0.2603,-0.0443 0.314893,0.0138 0.05459,0.0581 -0.04244,0.0994 -0.215633,0.0918 -0.191391,-0.008 -0.230321,-0.0498 -0.09926,-0.1056 z M 118.3457,189.6907 c 0.001,-0.48066 0.0331,-0.65656 0.0709,-0.39087 0.0378,0.26569 0.0367,0.65896 -0.002,0.87394 -0.039,0.21498 -0.0699,-0.002 -0.0687,-0.48307 z m 14.69822,-18.92075 c 16.01642,-0.0246 42.2251,-0.0246 58.24152,0 16.01642,0.0246 2.91207,0.0447 -29.12076,0.0447 -32.03283,0 -45.13717,-0.0201 -29.12076,-0.0447 z m -29.1587,-11.35124 c 0.15985,-0.0443 0.38164,-0.0414 0.49287,0.006 0.11123,0.0479 -0.0195,0.0841 -0.29063,0.0806 -0.27109,-0.004 -0.36209,-0.0427 -0.20224,-0.0871 z m 116.15445,0 c 0.15985,-0.0443 0.38164,-0.0414 0.49287,0.006 0.11123,0.0479 -0.0196,0.0841 -0.29063,0.0806 -0.27109,-0.004 -0.36209,-0.0427 -0.20224,-0.0871 z m -115.6647,-42.47274 c 0.15813,-0.044 0.41689,-0.044 0.57502,0 0.15813,0.044 0.0288,0.0799 -0.28751,0.0799 -0.31626,0 -0.44564,-0.036 -0.28751,-0.0799 z m 115.0044,0 c 0.15813,-0.044 0.41689,-0.044 0.57502,0 0.15814,0.044 0.0288,0.0799 -0.28751,0.0799 -0.31626,0 -0.44564,-0.036 -0.28751,-0.0799 z m 20.86509,-24.300189 c 0.24849,-0.04005 0.65511,-0.04005 0.9036,0 0.24849,0.04005 0.0452,0.07282 -0.4518,0.07282 -0.49698,0 -0.70029,-0.03277 -0.4518,-0.07282 z M 104.30309,74.473663 c 0.1186,-0.05049 0.2603,-0.04428 0.31489,0.0138 0.0546,0.05808 -0.0424,0.09939 -0.21563,0.0918 -0.19139,-0.0084 -0.23032,-0.0498 -0.0993,-0.105601 z m 53.55919,0 c 0.1186,-0.05049 0.2603,-0.04428 0.3149,0.0138 0.0546,0.05808 -0.0425,0.09939 -0.21564,0.0918 -0.19139,-0.0084 -0.23032,-0.0498 -0.0993,-0.105601 z M 81.510276,49.496476 c 0.0079,-0.203618 0.04681,-0.245035 0.09926,-0.105601 0.04746,0.126174 0.04162,0.276929 -0.01297,0.335009 -0.05459,0.05808 -0.09342,-0.04515 -0.08629,-0.229408 z m 8.735579,-8.932694 c 0.158131,-0.04396 0.416891,-0.04396 0.575022,0 0.158131,0.04396 0.02875,0.07993 -0.287511,0.07993 -0.316263,0 -0.445642,-0.03597 -0.287511,-0.07993 z"
         id="path2" /><path
         style="fill:#333333;fill-opacity:1"
         d="m 89.711906,246.93124 c -1.766228,-0.16242 -2.12231,-0.26601 -3.532155,-1.02757 -1.39781,-0.75507 -2.943908,-2.3634 -3.557517,-3.70073 -0.75446,-1.6443 -0.956826,-2.6045 -1.084291,-5.1448 l -0.122784,-2.44702 -20.947231,-0.10192 c -14.504196,-0.0706 -21.174632,-0.16165 -21.686545,-0.29615 -2.617558,-0.68771 -4.56529,-2.78574 -5.271514,-5.6783 -0.293229,-1.20101 -0.308925,-2.25599 -0.311598,-20.94406 -0.0027,-18.78574 0.01139,-19.73815 0.310069,-20.97451 0.637881,-2.64048 2.029804,-4.3335 4.469208,-5.43599 l 0.885981,-0.40042 21.275815,-0.089 21.275815,-0.089 0.08215,-66.24451 c 0.07939,-64.021273 0.0924,-66.27383 0.387554,-67.118438 1.231571,-3.524198 3.490907,-5.736951 6.548577,-6.413559 0.837213,-0.18526 11.15802,-0.22837 54.67337,-0.22837 h 53.64134 l 0.0496,0.915315 0.0496,0.915314 -54.0195,0.04602 -54.019506,0.04602 -1.125719,0.506386 c -1.593638,0.716871 -2.893571,2.041943 -3.681451,3.752645 l -0.614467,1.334172 -0.04234,66.282835 -0.04234,66.28285 14.74648,0.0491 14.746473,0.049 0.90361,0.43901 c 2.46182,1.19606 3.84822,2.89436 4.43759,5.43592 0.10367,0.44704 0.21884,3.77466 0.2761,7.97699 l 0.0982,7.20999 h 51.13859 c 49.45883,0 51.17097,0.0107 52.12392,0.32626 2.72532,0.9024 4.22098,3.6089 3.64274,6.59179 -0.34475,1.7784 -1.30559,3.08779 -2.95586,4.02811 -0.55775,0.3178 -2.12685,0.33027 -52.24486,0.41503 l -51.66984,0.0874 -0.10979,7.0789 c -0.0604,3.89339 -0.18919,7.49933 -0.28623,8.0132 -0.40631,2.15155 -2.03619,4.29878 -4.0083,5.2806 -0.78521,0.39092 -1.43796,0.55859 -2.67115,0.68616 -0.8976,0.0928 -7.61128,0.17084 -14.919272,0.17332 l -13.287272,0.005 0.07524,2.49073 c 0.07351,2.43324 0.08911,2.52151 0.676232,3.82489 0.76945,1.70815 2.061455,3.02998 3.667974,3.75265 l 1.125719,0.50638 h 72.699209 72.69922 l 1.12571,-0.50638 c 2.32444,-1.04561 3.94189,-3.31545 4.22714,-5.93212 0.0751,-0.68868 0.13975,-33.79542 0.14371,-73.57052 l 0.007,-72.318371 h 0.9036 0.90361 v 72.604941 c 0,80.73084 0.0922,74.28679 -1.09736,76.69859 -1.0878,2.20548 -3.27377,4.03547 -5.63861,4.72037 -0.57748,0.16725 -16.38305,0.21966 -72.20634,0.23945 -39.30686,0.0139 -72.095438,-0.0325 -72.863503,-0.10309 z M 57.264234,221.53332 c 2.321647,-0.75966 4.469317,-2.32811 5.088397,-3.71606 0.656446,-1.47174 -0.07497,-3.00624 -1.575676,-3.30576 -0.772828,-0.15424 -1.421942,0.16159 -2.42587,1.18033 -1.063283,1.07897 -2.050041,1.51491 -3.922347,1.73284 -2.753138,0.32047 -5.021951,-0.22188 -6.611294,-1.58038 -0.967869,-0.8273 -1.240084,-1.16705 -1.728915,-2.15787 -0.679004,-1.37629 -0.928253,-4.52627 -0.567926,-7.17738 0.308448,-2.26941 1.747172,-4.46506 3.641967,-5.55805 1.023477,-0.59038 1.0641,-0.59824 3.090758,-0.59824 1.973282,0 2.095442,0.0217 3.121548,0.55499 1.65539,0.86032 2.162255,1.44997 2.37763,2.76597 0.318878,1.94843 2.306648,2.76763 3.53768,1.45796 0.631519,-0.67187 0.68844,-1.0942 0.626577,-4.6489 l -0.05235,-3.00821 -0.537108,-0.57097 c -0.473782,-0.50364 -0.64165,-0.57096 -1.423791,-0.57096 -0.67971,0 -1.011903,0.0985 -1.423139,0.42196 -0.520249,0.40921 -0.551199,0.41295 -1.024387,0.12403 -0.889204,-0.54293 -2.460888,-1.00982 -3.951811,-1.17392 -4.016049,-0.44204 -7.674958,1.13438 -9.943539,4.28411 -1.978616,2.74714 -2.592214,5.32472 -2.437517,10.23944 0.06902,2.19263 0.155784,2.92583 0.455063,3.84532 0.97797,3.00468 3.138554,5.62624 5.582095,6.77308 2.116516,0.99335 3.616493,1.2669 6.489534,1.1835 1.853262,-0.0538 2.555417,-0.15031 3.614424,-0.49683 z m 22.508005,0.0508 c 2.089807,-0.68637 3.923207,-2.06635 4.75752,-3.58095 0.238959,-0.4338 0.543349,-1.39414 0.676423,-2.13409 0.212634,-1.18233 0.212833,-1.50962 0.0016,-2.70089 -0.616019,-3.47478 -2.796727,-5.28902 -7.614622,-6.33499 -0.608741,-0.13216 -1.698253,-0.36794 -2.421138,-0.52396 -1.868656,-0.40332 -2.634737,-0.75566 -3.27033,-1.50413 -0.931815,-1.0973 -0.931081,-1.95195 0.0027,-3.13256 0.784306,-0.99164 1.864199,-1.40375 3.678372,-1.40375 1.327458,0 1.695852,0.0667 2.46438,0.44587 1.113949,0.54966 1.920806,1.35427 2.066695,2.06092 0.234774,1.13721 0.704591,2.01337 1.236546,2.30602 0.798556,0.43933 1.861806,0.25669 2.508037,-0.43083 l 0.513964,-0.54679 v -3.31425 -3.31424 l -0.52831,-0.56206 c -0.461618,-0.49111 -0.640872,-0.56324 -1.419964,-0.57142 -0.662973,-0.007 -0.982792,0.0783 -1.247019,0.33246 -0.293701,0.2825 -0.410276,0.30533 -0.671804,0.13157 -2.10227,-1.39676 -6.255481,-1.56711 -8.963696,-0.36765 -1.04055,0.46086 -1.500096,0.80014 -2.443501,1.80402 -0.63906,0.68003 -1.247762,1.43305 -1.352671,1.67339 -0.770713,1.7656 -0.787938,1.84305 -0.777472,3.49575 0.01209,1.90846 0.298844,2.78381 1.389231,4.24077 1.42944,1.90999 3.097447,2.66402 8.375628,3.78623 2.660579,0.56568 3.808907,1.22667 4.19265,2.41335 0.913244,2.8241 -4.518322,4.75622 -8.329597,2.96302 -0.994608,-0.46797 -2.106149,-1.42061 -2.106149,-1.80507 0,-0.47357 -0.649875,-1.60608 -1.130614,-1.97026 -0.931396,-0.70558 -2.486621,-0.28095 -2.971098,0.81123 -0.267475,0.60297 -0.416177,3.63371 -0.256244,5.22256 0.103221,1.02543 0.193798,1.26703 0.661572,1.76469 0.469251,0.49923 0.65272,0.5766 1.367261,0.5766 0.644902,0 0.934096,-0.0974 1.323121,-0.44566 0.466736,-0.41782 0.527038,-0.4296 0.965264,-0.18851 0.663902,0.36525 2.455785,0.99496 3.326578,1.16904 1.314789,0.26284 4.714546,0.0557 5.996658,-0.36543 z m 22.509521,-2.00471 c 0.36271,-0.96133 0.70554,-1.82653 0.76185,-1.92266 0.0563,-0.0961 0.3053,-0.72537 0.55333,-1.3983 0.24802,-0.67293 0.58216,-1.53813 0.74252,-1.92267 0.3224,-0.77303 1.68033,-4.2469 2.56217,-6.55453 0.31226,-0.81713 0.66846,-1.72166 0.79156,-2.01006 0.1231,-0.2884 0.4204,-1.03562 0.66066,-1.66048 0.24027,-0.62487 0.57036,-1.45074 0.73354,-1.83527 0.16318,-0.38453 0.34828,-0.87612 0.41134,-1.09242 0.0901,-0.3092 0.23696,-0.39328 0.68676,-0.39328 2.04512,0 2.99677,-2.44945 1.5318,-3.94265 l -0.50471,-0.51443 h -4.25764 -4.25765 l -0.53711,0.57142 c -0.48473,0.5157 -0.5371,0.67156 -0.5371,1.59844 0,0.77822 0.0788,1.11964 0.32524,1.40937 0.46154,0.54257 1.31205,0.87785 2.22686,0.87785 h 0.7869 l -0.57199,1.442 c -0.3146,0.7931 -0.81872,2.07124 -1.12028,2.8403 -0.30156,0.76907 -0.89284,2.2635 -1.31397,3.32097 -0.42113,1.05746 -1.01142,2.55189 -1.31176,3.32096 -0.30035,0.76907 -0.686623,1.74231 -0.858397,2.16277 l -0.312317,0.76447 -0.272739,-0.67708 c -0.273154,-0.6781 -1.427802,-3.60185 -2.200153,-5.57112 -0.226221,-0.5768 -0.478265,-1.20604 -0.560096,-1.39831 -0.08183,-0.19226 -0.401437,-1.01813 -0.710233,-1.83527 -0.308795,-0.81713 -0.791151,-2.05162 -1.071901,-2.74332 -0.28075,-0.6917 -0.510454,-1.34059 -0.510454,-1.442 0,-0.1014 0.323662,-0.18437 0.71925,-0.18437 1.576976,0 2.56659,-0.87612 2.56659,-2.27223 0,-0.9733 -0.425912,-1.66292 -1.254498,-2.03124 -0.652488,-0.29005 -7.345578,-0.34363 -8.283864,-0.0663 -0.828775,0.24494 -1.304911,0.99911 -1.304911,2.06691 0,1.32727 0.919182,2.30288 2.169678,2.30288 0.574324,0 0.523775,-0.0698 1.202006,1.66049 0.150725,0.38453 0.568967,1.44636 0.929426,2.35963 0.360459,0.91326 0.909702,2.32904 1.220541,3.14618 0.310838,0.81713 0.633976,1.643 0.718085,1.83527 0.08411,0.19226 0.274179,0.66419 0.422379,1.04872 0.148201,0.38453 0.564376,1.44637 0.924835,2.35963 0.360459,0.91327 0.909702,2.32905 1.220541,3.14618 0.310838,0.81713 0.632945,1.643 0.715793,1.83527 0.518382,1.20302 1.155697,2.88466 1.155697,3.04946 0,0.13517 0.662072,0.17942 2.176479,0.14549 l 2.176483,-0.0488 z m 0.10354,-49.0532 c -1.3089,-0.40188 -2.590537,-1.70518 -3.236597,-3.29131 -0.474493,-1.16492 -0.442798,-3.30533 0.06607,-4.46146 0.856317,-1.94554 2.301767,-3.00395 4.427467,-3.24194 1.90604,-0.2134 115.13884,-0.2134 117.04488,0 1.61783,0.18113 2.52729,0.63641 3.45606,1.73011 0.99652,1.1735 1.35214,2.19014 1.35423,3.87146 0.002,1.30284 -0.0582,1.61168 -0.48566,2.5093 -0.51802,1.08767 -1.50866,2.14051 -2.51487,2.67276 -0.59209,0.31319 -2.55239,0.32468 -60.08576,0.35217 -38.00976,0.0182 -59.67296,-0.0327 -60.02582,-0.14109 z m 0.20991,-42.42737 c -1.56061,-0.47616 -2.669365,-1.49839 -3.399413,-3.13411 -0.524586,-1.17538 -0.520073,-3.44474 0.0092,-4.63093 0.555133,-1.24413 1.532713,-2.27387 2.705993,-2.85038 l 1.02641,-0.50433 h 59.22727 59.22727 l 1.02641,0.50433 c 1.17169,0.57573 2.08691,1.53945 2.67487,2.81663 0.33023,0.71732 0.40266,1.1402 0.40418,2.35963 0.002,1.30348 -0.0581,1.61148 -0.4866,2.51127 -0.59746,1.2545 -1.83897,2.45685 -2.96169,2.86829 -0.7707,0.28244 -4.45578,0.303 -59.638,0.33278 -55.50591,0.03 -58.87279,0.0146 -59.81591,-0.27318 z m 0.41813,-42.304187 c -1.53201,-0.323822 -2.97302,-1.507928 -3.740858,-3.073937 -0.366872,-0.748235 -0.429503,-1.100202 -0.435438,-2.447026 -0.0065,-1.467487 0.03094,-1.647407 0.557248,-2.680163 0.622528,-1.221575 1.485078,-2.070666 2.727028,-2.684485 l 0.81609,-0.403343 h 28.25823 28.25822 l 1.08869,0.566691 c 1.17092,0.60949 2.04394,1.504567 2.63611,2.7027 0.30792,0.623028 0.37201,1.033168 0.37677,2.411206 0.005,1.465738 -0.0453,1.76298 -0.42906,2.53442 -0.5711,1.14793 -1.4487,2.087704 -2.49556,2.672371 l -0.84836,0.473806 -28.09394,0.02531 c -15.45166,0.01392 -28.35549,-0.02998 -28.67517,-0.09755 z"
         id="path1" /></g></g></svg>
